<?xml version="1.0" encoding="UTF-8" standalone="no"?>
<!DOCTYPE svg PUBLIC "-//W3C//DTD SVG 1.1//EN"
 "http://www.w3.org/Graphics/SVG/1.1/DTD/svg11.dtd">
<!-- Generated by graphviz version 2.47.0 (20210316.0004)
 -->
<!-- Title: dependencies Pages: 1 -->
<svg width="504pt" height="211pt"
 viewBox="0.00 0.00 504.00 211.00" xmlns="http://www.w3.org/2000/svg" xmlns:xlink="http://www.w3.org/1999/xlink">
<g id="graph0" class="graph" transform="scale(1 1) rotate(0) translate(4 207)">
<title>dependencies</title>
<polygon fill="white" stroke="transparent" points="-4,4 -4,-207 500,-207 500,4 -4,4"/>
<text text-anchor="start" x="227.01" y="-42.4" font-family="Times-12" font-weight="bold" font-size="14.00">Legend</text>
<polygon fill="#ffffb3" stroke="transparent" points="14,-10 14,-30 34,-30 34,-10 14,-10"/>
<text text-anchor="start" x="37.63" y="-15.4" font-family="Times-12" font-size="14.00"> &#160;Declarations</text>
<polygon fill="#8dd3c7" stroke="transparent" points="127,-10 127,-30 147,-30 147,-10 127,-10"/>
<text text-anchor="start" x="150.73" y="-15.4" font-family="Times-12" font-size="14.00"> &#160;Module</text>
<polygon fill="#80b1d3" stroke="transparent" points="213,-10 213,-30 233,-30 233,-10 213,-10"/>
<text text-anchor="start" x="236.78" y="-15.4" font-family="Times-12" font-size="14.00"> &#160;Bootstrap</text>
<polygon fill="#fdb462" stroke="transparent" points="310,-10 310,-30 330,-30 330,-10 310,-10"/>
<text text-anchor="start" x="333.67" y="-15.4" font-family="Times-12" font-size="14.00"> &#160;Providers</text>
<polygon fill="#fb8072" stroke="transparent" points="406,-10 406,-30 426,-30 426,-10 406,-10"/>
<text text-anchor="start" x="429.73" y="-15.4" font-family="Times-12" font-size="14.00"> &#160;Exports</text>
<g id="clust1" class="cluster">
<title>cluster_BirthdayPageModule</title>
<polygon fill="none" stroke="black" stroke-dasharray="1,5" points="84,-70 84,-195 412,-195 412,-70 84,-70"/>
</g>
<g id="clust2" class="cluster">
<title>cluster_BirthdayPageModule_declarations</title>
<polygon fill="none" stroke="black" points="296,-78 296,-130 404,-130 404,-78 296,-78"/>
</g>
<g id="clust4" class="cluster">
<title>cluster_BirthdayPageModule_imports</title>
<polygon fill="none" stroke="black" points="92,-78 92,-130 288,-130 288,-78 92,-78"/>
</g>
<!-- BirthdayPage -->
<g id="node1" class="node">
<title>BirthdayPage</title>
<polygon fill="#ffffb3" stroke="black" points="396.21,-122 303.79,-122 303.79,-86 396.21,-86 396.21,-122"/>
<text text-anchor="middle" x="350" y="-99.8" font-family="Times,serif" font-size="14.00">BirthdayPage</text>
</g>
<!-- BirthdayPageModule -->
<g id="node2" class="node">
<title>BirthdayPageModule</title>
<polygon fill="#8dd3c7" stroke="black" points="330.75,-187 327.75,-191 306.75,-191 303.75,-187 195.25,-187 195.25,-151 330.75,-151 330.75,-187"/>
<text text-anchor="middle" x="263" y="-164.8" font-family="Times,serif" font-size="14.00">BirthdayPageModule</text>
</g>
<!-- BirthdayPage&#45;&gt;BirthdayPageModule -->
<g id="edge1" class="edge">
<title>BirthdayPage&#45;&gt;BirthdayPageModule</title>
<path fill="none" stroke="black" d="M317.39,-122.11C317.39,-122.11 317.39,-140.99 317.39,-140.99"/>
<polygon fill="black" stroke="black" points="313.89,-140.99 317.39,-150.99 320.89,-140.99 313.89,-140.99"/>
</g>
<!-- BirthdayPageRoutingModule -->
<g id="node3" class="node">
<title>BirthdayPageRoutingModule</title>
<polygon fill="#8dd3c7" stroke="black" points="280.37,-122 277.37,-126 256.37,-126 253.37,-122 99.63,-122 99.63,-86 280.37,-86 280.37,-122"/>
<text text-anchor="middle" x="190" y="-99.8" font-family="Times,serif" font-size="14.00">BirthdayPageRoutingModule</text>
</g>
<!-- BirthdayPageRoutingModule&#45;&gt;BirthdayPageModule -->
<g id="edge2" class="edge">
<title>BirthdayPageRoutingModule&#45;&gt;BirthdayPageModule</title>
<path fill="none" stroke="black" d="M237.78,-122.11C237.78,-122.11 237.78,-140.99 237.78,-140.99"/>
<polygon fill="black" stroke="black" points="234.28,-140.99 237.78,-150.99 241.28,-140.99 234.28,-140.99"/>
</g>
</g>
</svg>
