<?xml version="1.0" encoding="UTF-8" standalone="no"?>
<!DOCTYPE svg PUBLIC "-//W3C//DTD SVG 1.1//EN"
 "http://www.w3.org/Graphics/SVG/1.1/DTD/svg11.dtd">
<!-- Generated by graphviz version 2.47.0 (20210316.0004)
 -->
<!-- Title: dependencies Pages: 1 -->
<svg width="530pt" height="211pt"
 viewBox="0.00 0.00 530.00 211.00" xmlns="http://www.w3.org/2000/svg" xmlns:xlink="http://www.w3.org/1999/xlink">
<g id="graph0" class="graph" transform="scale(1 1) rotate(0) translate(4 207)">
<title>dependencies</title>
<polygon fill="white" stroke="transparent" points="-4,4 -4,-207 526,-207 526,4 -4,4"/>
<text text-anchor="start" x="240.01" y="-42.4" font-family="Times-12" font-weight="bold" font-size="14.00">Legend</text>
<polygon fill="#ffffb3" stroke="transparent" points="27,-10 27,-30 47,-30 47,-10 27,-10"/>
<text text-anchor="start" x="50.63" y="-15.4" font-family="Times-12" font-size="14.00"> &#160;Declarations</text>
<polygon fill="#8dd3c7" stroke="transparent" points="140,-10 140,-30 160,-30 160,-10 140,-10"/>
<text text-anchor="start" x="163.73" y="-15.4" font-family="Times-12" font-size="14.00"> &#160;Module</text>
<polygon fill="#80b1d3" stroke="transparent" points="226,-10 226,-30 246,-30 246,-10 226,-10"/>
<text text-anchor="start" x="249.78" y="-15.4" font-family="Times-12" font-size="14.00"> &#160;Bootstrap</text>
<polygon fill="#fdb462" stroke="transparent" points="323,-10 323,-30 343,-30 343,-10 323,-10"/>
<text text-anchor="start" x="346.67" y="-15.4" font-family="Times-12" font-size="14.00"> &#160;Providers</text>
<polygon fill="#fb8072" stroke="transparent" points="419,-10 419,-30 439,-30 439,-10 419,-10"/>
<text text-anchor="start" x="442.73" y="-15.4" font-family="Times-12" font-size="14.00"> &#160;Exports</text>
<g id="clust1" class="cluster">
<title>cluster_OfferingPageModule</title>
<polygon fill="none" stroke="black" stroke-dasharray="1,5" points="8,-70 8,-195 514,-195 514,-70 8,-70"/>
</g>
<g id="clust2" class="cluster">
<title>cluster_OfferingPageModule_declarations</title>
<polygon fill="none" stroke="black" points="220,-78 220,-130 506,-130 506,-78 220,-78"/>
</g>
<g id="clust5" class="cluster">
<title>cluster_OfferingPageModule_imports</title>
<polygon fill="none" stroke="black" points="16,-78 16,-130 212,-130 212,-78 16,-78"/>
</g>
<!-- OfferingFormComponent -->
<g id="node1" class="node">
<title>OfferingFormComponent</title>
<polygon fill="#ffffb3" stroke="black" points="497.86,-122 338.14,-122 338.14,-86 497.86,-86 497.86,-122"/>
<text text-anchor="middle" x="418" y="-99.8" font-family="Times,serif" font-size="14.00">OfferingFormComponent</text>
</g>
<!-- OfferingPageModule -->
<g id="node3" class="node">
<title>OfferingPageModule</title>
<polygon fill="#8dd3c7" stroke="black" points="341.46,-187 338.46,-191 317.46,-191 314.46,-187 206.54,-187 206.54,-151 341.46,-151 341.46,-187"/>
<text text-anchor="middle" x="274" y="-164.8" font-family="Times,serif" font-size="14.00">OfferingPageModule</text>
</g>
<!-- OfferingFormComponent&#45;&gt;OfferingPageModule -->
<g id="edge1" class="edge">
<title>OfferingFormComponent&#45;&gt;OfferingPageModule</title>
<path fill="none" stroke="black" d="M338.09,-104C332.42,-104 328.89,-104 328.89,-104 328.89,-104 328.89,-140.89 328.89,-140.89"/>
<polygon fill="black" stroke="black" points="325.39,-140.89 328.89,-150.89 332.39,-140.89 325.39,-140.89"/>
</g>
<!-- OfferingPage -->
<g id="node2" class="node">
<title>OfferingPage</title>
<polygon fill="#ffffb3" stroke="black" points="319.91,-122 228.09,-122 228.09,-86 319.91,-86 319.91,-122"/>
<text text-anchor="middle" x="274" y="-99.8" font-family="Times,serif" font-size="14.00">OfferingPage</text>
</g>
<!-- OfferingPage&#45;&gt;OfferingPageModule -->
<g id="edge2" class="edge">
<title>OfferingPage&#45;&gt;OfferingPageModule</title>
<path fill="none" stroke="black" d="M274,-122.11C274,-122.11 274,-140.99 274,-140.99"/>
<polygon fill="black" stroke="black" points="270.5,-140.99 274,-150.99 277.5,-140.99 270.5,-140.99"/>
</g>
<!-- OfferingPageRoutingModule -->
<g id="node4" class="node">
<title>OfferingPageRoutingModule</title>
<polygon fill="#8dd3c7" stroke="black" points="204.07,-122 201.07,-126 180.07,-126 177.07,-122 23.93,-122 23.93,-86 204.07,-86 204.07,-122"/>
<text text-anchor="middle" x="114" y="-99.8" font-family="Times,serif" font-size="14.00">OfferingPageRoutingModule</text>
</g>
<!-- OfferingPageRoutingModule&#45;&gt;OfferingPageModule -->
<g id="edge3" class="edge">
<title>OfferingPageRoutingModule&#45;&gt;OfferingPageModule</title>
<path fill="none" stroke="black" d="M204.31,-104C212.28,-104 217.41,-104 217.41,-104 217.41,-104 217.41,-140.89 217.41,-140.89"/>
<polygon fill="black" stroke="black" points="213.91,-140.89 217.41,-150.89 220.91,-140.89 213.91,-140.89"/>
</g>
</g>
</svg>
