<?xml version="1.0" encoding="UTF-8" standalone="no"?>
<!DOCTYPE svg PUBLIC "-//W3C//DTD SVG 1.1//EN"
 "http://www.w3.org/Graphics/SVG/1.1/DTD/svg11.dtd">
<!-- Generated by graphviz version 2.47.0 (20210316.0004)
 -->
<!-- Title: dependencies Pages: 1 -->
<svg width="708pt" height="211pt"
 viewBox="0.00 0.00 708.00 211.00" xmlns="http://www.w3.org/2000/svg" xmlns:xlink="http://www.w3.org/1999/xlink">
<g id="graph0" class="graph" transform="scale(1 1) rotate(0) translate(4 207)">
<title>dependencies</title>
<polygon fill="white" stroke="transparent" points="-4,4 -4,-207 704,-207 704,4 -4,4"/>
<text text-anchor="start" x="329.01" y="-42.4" font-family="Times-12" font-weight="bold" font-size="14.00">Legend</text>
<polygon fill="#ffffb3" stroke="transparent" points="116,-10 116,-30 136,-30 136,-10 116,-10"/>
<text text-anchor="start" x="139.63" y="-15.4" font-family="Times-12" font-size="14.00"> &#160;Declarations</text>
<polygon fill="#8dd3c7" stroke="transparent" points="229,-10 229,-30 249,-30 249,-10 229,-10"/>
<text text-anchor="start" x="252.73" y="-15.4" font-family="Times-12" font-size="14.00"> &#160;Module</text>
<polygon fill="#80b1d3" stroke="transparent" points="315,-10 315,-30 335,-30 335,-10 315,-10"/>
<text text-anchor="start" x="338.78" y="-15.4" font-family="Times-12" font-size="14.00"> &#160;Bootstrap</text>
<polygon fill="#fdb462" stroke="transparent" points="412,-10 412,-30 432,-30 432,-10 412,-10"/>
<text text-anchor="start" x="435.67" y="-15.4" font-family="Times-12" font-size="14.00"> &#160;Providers</text>
<polygon fill="#fb8072" stroke="transparent" points="508,-10 508,-30 528,-30 528,-10 508,-10"/>
<text text-anchor="start" x="531.73" y="-15.4" font-family="Times-12" font-size="14.00"> &#160;Exports</text>
<g id="clust1" class="cluster">
<title>cluster_EventTransactionBookPageModule</title>
<polygon fill="none" stroke="black" stroke-dasharray="1,5" points="8,-70 8,-195 692,-195 692,-70 8,-70"/>
</g>
<g id="clust2" class="cluster">
<title>cluster_EventTransactionBookPageModule_declarations</title>
<polygon fill="none" stroke="black" points="300,-78 300,-130 684,-130 684,-78 300,-78"/>
</g>
<g id="clust5" class="cluster">
<title>cluster_EventTransactionBookPageModule_imports</title>
<polygon fill="none" stroke="black" points="16,-78 16,-130 292,-130 292,-78 16,-78"/>
</g>
<!-- EventTransactionBookPage -->
<g id="node1" class="node">
<title>EventTransactionBookPage</title>
<polygon fill="#ffffb3" stroke="black" points="676.29,-122 503.71,-122 503.71,-86 676.29,-86 676.29,-122"/>
<text text-anchor="middle" x="590" y="-99.8" font-family="Times,serif" font-size="14.00">EventTransactionBookPage</text>
</g>
<!-- EventTransactionBookPageModule -->
<g id="node3" class="node">
<title>EventTransactionBookPageModule</title>
<polygon fill="#8dd3c7" stroke="black" points="504.84,-187 501.84,-191 480.84,-191 477.84,-187 289.16,-187 289.16,-151 504.84,-151 504.84,-187"/>
<text text-anchor="middle" x="397" y="-164.8" font-family="Times,serif" font-size="14.00">EventTransactionBookPageModule</text>
</g>
<!-- EventTransactionBookPage&#45;&gt;EventTransactionBookPageModule -->
<g id="edge1" class="edge">
<title>EventTransactionBookPage&#45;&gt;EventTransactionBookPageModule</title>
<path fill="none" stroke="black" d="M503.64,-104C498.21,-104 494.87,-104 494.87,-104 494.87,-104 494.87,-140.89 494.87,-140.89"/>
<polygon fill="black" stroke="black" points="491.37,-140.89 494.87,-150.89 498.37,-140.89 491.37,-140.89"/>
</g>
<!-- TransactionFormComponent -->
<g id="node2" class="node">
<title>TransactionFormComponent</title>
<polygon fill="#ffffb3" stroke="black" points="485.75,-122 308.25,-122 308.25,-86 485.75,-86 485.75,-122"/>
<text text-anchor="middle" x="397" y="-99.8" font-family="Times,serif" font-size="14.00">TransactionFormComponent</text>
</g>
<!-- TransactionFormComponent&#45;&gt;EventTransactionBookPageModule -->
<g id="edge2" class="edge">
<title>TransactionFormComponent&#45;&gt;EventTransactionBookPageModule</title>
<path fill="none" stroke="black" d="M397,-122.11C397,-122.11 397,-140.99 397,-140.99"/>
<polygon fill="black" stroke="black" points="393.5,-140.99 397,-150.99 400.5,-140.99 393.5,-140.99"/>
</g>
<!-- EventTransactionBookPageRoutingModule -->
<g id="node4" class="node">
<title>EventTransactionBookPageRoutingModule</title>
<polygon fill="#8dd3c7" stroke="black" points="284.46,-122 281.46,-126 260.46,-126 257.46,-122 23.54,-122 23.54,-86 284.46,-86 284.46,-122"/>
<text text-anchor="middle" x="154" y="-99.8" font-family="Times,serif" font-size="14.00">EventTransactionBookPageRoutingModule</text>
</g>
<!-- EventTransactionBookPageRoutingModule&#45;&gt;EventTransactionBookPageModule -->
<g id="edge3" class="edge">
<title>EventTransactionBookPageRoutingModule&#45;&gt;EventTransactionBookPageModule</title>
<path fill="none" stroke="black" d="M284.47,-104C293.2,-104 298.6,-104 298.6,-104 298.6,-104 298.6,-140.89 298.6,-140.89"/>
<polygon fill="black" stroke="black" points="295.1,-140.89 298.6,-150.89 302.1,-140.89 295.1,-140.89"/>
</g>
</g>
</svg>
