<?xml version="1.0" encoding="UTF-8" standalone="no"?>
<!DOCTYPE svg PUBLIC "-//W3C//DTD SVG 1.1//EN"
 "http://www.w3.org/Graphics/SVG/1.1/DTD/svg11.dtd">
<!-- Generated by graphviz version 2.47.0 (20210316.0004)
 -->
<!-- Title: dependencies Pages: 1 -->
<svg width="504pt" height="211pt"
 viewBox="0.00 0.00 504.00 211.00" xmlns="http://www.w3.org/2000/svg" xmlns:xlink="http://www.w3.org/1999/xlink">
<g id="graph0" class="graph" transform="scale(1 1) rotate(0) translate(4 207)">
<title>dependencies</title>
<polygon fill="white" stroke="transparent" points="-4,4 -4,-207 500,-207 500,4 -4,4"/>
<text text-anchor="start" x="227.01" y="-42.4" font-family="Times-12" font-weight="bold" font-size="14.00">Legend</text>
<polygon fill="#ffffb3" stroke="transparent" points="14,-10 14,-30 34,-30 34,-10 14,-10"/>
<text text-anchor="start" x="37.63" y="-15.4" font-family="Times-12" font-size="14.00"> &#160;Declarations</text>
<polygon fill="#8dd3c7" stroke="transparent" points="127,-10 127,-30 147,-30 147,-10 127,-10"/>
<text text-anchor="start" x="150.73" y="-15.4" font-family="Times-12" font-size="14.00"> &#160;Module</text>
<polygon fill="#80b1d3" stroke="transparent" points="213,-10 213,-30 233,-30 233,-10 213,-10"/>
<text text-anchor="start" x="236.78" y="-15.4" font-family="Times-12" font-size="14.00"> &#160;Bootstrap</text>
<polygon fill="#fdb462" stroke="transparent" points="310,-10 310,-30 330,-30 330,-10 310,-10"/>
<text text-anchor="start" x="333.67" y="-15.4" font-family="Times-12" font-size="14.00"> &#160;Providers</text>
<polygon fill="#fb8072" stroke="transparent" points="406,-10 406,-30 426,-30 426,-10 406,-10"/>
<text text-anchor="start" x="429.73" y="-15.4" font-family="Times-12" font-size="14.00"> &#160;Exports</text>
<g id="clust1" class="cluster">
<title>cluster_HolidayCalenderPageModule</title>
<polygon fill="none" stroke="black" stroke-dasharray="1,5" points="37,-70 37,-195 459,-195 459,-70 37,-70"/>
</g>
<g id="clust2" class="cluster">
<title>cluster_HolidayCalenderPageModule_declarations</title>
<polygon fill="none" stroke="black" points="297,-78 297,-130 451,-130 451,-78 297,-78"/>
</g>
<g id="clust4" class="cluster">
<title>cluster_HolidayCalenderPageModule_imports</title>
<polygon fill="none" stroke="black" points="45,-78 45,-130 289,-130 289,-78 45,-78"/>
</g>
<!-- HolidayCalenderPage -->
<g id="node1" class="node">
<title>HolidayCalenderPage</title>
<polygon fill="#ffffb3" stroke="black" points="443.35,-122 304.65,-122 304.65,-86 443.35,-86 443.35,-122"/>
<text text-anchor="middle" x="374" y="-99.8" font-family="Times,serif" font-size="14.00">HolidayCalenderPage</text>
</g>
<!-- HolidayCalenderPageModule -->
<g id="node2" class="node">
<title>HolidayCalenderPageModule</title>
<polygon fill="#8dd3c7" stroke="black" points="354.4,-187 351.4,-191 330.4,-191 327.4,-187 171.6,-187 171.6,-151 354.4,-151 354.4,-187"/>
<text text-anchor="middle" x="263" y="-164.8" font-family="Times,serif" font-size="14.00">HolidayCalenderPageModule</text>
</g>
<!-- HolidayCalenderPage&#45;&gt;HolidayCalenderPageModule -->
<g id="edge1" class="edge">
<title>HolidayCalenderPage&#45;&gt;HolidayCalenderPageModule</title>
<path fill="none" stroke="black" d="M329.39,-122.11C329.39,-122.11 329.39,-140.99 329.39,-140.99"/>
<polygon fill="black" stroke="black" points="325.89,-140.99 329.39,-150.99 332.89,-140.99 325.89,-140.99"/>
</g>
<!-- HolidayCalenderPageRoutingModule -->
<g id="node3" class="node">
<title>HolidayCalenderPageRoutingModule</title>
<polygon fill="#8dd3c7" stroke="black" points="280.51,-122 277.51,-126 256.51,-126 253.51,-122 53.49,-122 53.49,-86 280.51,-86 280.51,-122"/>
<text text-anchor="middle" x="167" y="-99.8" font-family="Times,serif" font-size="14.00">HolidayCalenderPageRoutingModule</text>
</g>
<!-- HolidayCalenderPageRoutingModule&#45;&gt;HolidayCalenderPageModule -->
<g id="edge2" class="edge">
<title>HolidayCalenderPageRoutingModule&#45;&gt;HolidayCalenderPageModule</title>
<path fill="none" stroke="black" d="M226.28,-122.11C226.28,-122.11 226.28,-140.99 226.28,-140.99"/>
<polygon fill="black" stroke="black" points="222.78,-140.99 226.28,-150.99 229.78,-140.99 222.78,-140.99"/>
</g>
</g>
</svg>
