<?xml version="1.0" encoding="UTF-8" standalone="no"?>
<!DOCTYPE svg PUBLIC "-//W3C//DTD SVG 1.1//EN"
 "http://www.w3.org/Graphics/SVG/1.1/DTD/svg11.dtd">
<!-- Generated by graphviz version 2.47.0 (20210316.0004)
 -->
<!-- Title: dependencies Pages: 1 -->
<svg width="522pt" height="211pt"
 viewBox="0.00 0.00 522.00 211.00" xmlns="http://www.w3.org/2000/svg" xmlns:xlink="http://www.w3.org/1999/xlink">
<g id="graph0" class="graph" transform="scale(1 1) rotate(0) translate(4 207)">
<title>dependencies</title>
<polygon fill="white" stroke="transparent" points="-4,4 -4,-207 518,-207 518,4 -4,4"/>
<text text-anchor="start" x="236.01" y="-42.4" font-family="Times-12" font-weight="bold" font-size="14.00">Legend</text>
<polygon fill="#ffffb3" stroke="transparent" points="23,-10 23,-30 43,-30 43,-10 23,-10"/>
<text text-anchor="start" x="46.63" y="-15.4" font-family="Times-12" font-size="14.00"> &#160;Declarations</text>
<polygon fill="#8dd3c7" stroke="transparent" points="136,-10 136,-30 156,-30 156,-10 136,-10"/>
<text text-anchor="start" x="159.73" y="-15.4" font-family="Times-12" font-size="14.00"> &#160;Module</text>
<polygon fill="#80b1d3" stroke="transparent" points="222,-10 222,-30 242,-30 242,-10 222,-10"/>
<text text-anchor="start" x="245.78" y="-15.4" font-family="Times-12" font-size="14.00"> &#160;Bootstrap</text>
<polygon fill="#fdb462" stroke="transparent" points="319,-10 319,-30 339,-30 339,-10 319,-10"/>
<text text-anchor="start" x="342.67" y="-15.4" font-family="Times-12" font-size="14.00"> &#160;Providers</text>
<polygon fill="#fb8072" stroke="transparent" points="415,-10 415,-30 435,-30 435,-10 415,-10"/>
<text text-anchor="start" x="438.73" y="-15.4" font-family="Times-12" font-size="14.00"> &#160;Exports</text>
<g id="clust1" class="cluster">
<title>cluster_StudentPageModule</title>
<polygon fill="none" stroke="black" stroke-dasharray="1,5" points="8,-70 8,-195 506,-195 506,-70 8,-70"/>
</g>
<g id="clust5" class="cluster">
<title>cluster_StudentPageModule_imports</title>
<polygon fill="none" stroke="black" points="308,-78 308,-130 498,-130 498,-78 308,-78"/>
</g>
<g id="clust2" class="cluster">
<title>cluster_StudentPageModule_declarations</title>
<polygon fill="none" stroke="black" points="16,-78 16,-130 300,-130 300,-78 16,-78"/>
</g>
<!-- ExtractStudentComponent -->
<g id="node1" class="node">
<title>ExtractStudentComponent</title>
<polygon fill="#ffffb3" stroke="black" points="292.04,-122 127.96,-122 127.96,-86 292.04,-86 292.04,-122"/>
<text text-anchor="middle" x="210" y="-99.8" font-family="Times,serif" font-size="14.00">ExtractStudentComponent</text>
</g>
<!-- StudentPageModule -->
<g id="node3" class="node">
<title>StudentPageModule</title>
<polygon fill="#8dd3c7" stroke="black" points="274.54,-187 271.54,-191 250.54,-191 247.54,-187 145.46,-187 145.46,-151 274.54,-151 274.54,-187"/>
<text text-anchor="middle" x="210" y="-164.8" font-family="Times,serif" font-size="14.00">StudentPageModule</text>
</g>
<!-- ExtractStudentComponent&#45;&gt;StudentPageModule -->
<g id="edge1" class="edge">
<title>ExtractStudentComponent&#45;&gt;StudentPageModule</title>
<path fill="none" stroke="black" d="M210,-122.11C210,-122.11 210,-140.99 210,-140.99"/>
<polygon fill="black" stroke="black" points="206.5,-140.99 210,-150.99 213.5,-140.99 206.5,-140.99"/>
</g>
<!-- StudentPage -->
<g id="node2" class="node">
<title>StudentPage</title>
<polygon fill="#ffffb3" stroke="black" points="109.99,-122 24.01,-122 24.01,-86 109.99,-86 109.99,-122"/>
<text text-anchor="middle" x="67" y="-99.8" font-family="Times,serif" font-size="14.00">StudentPage</text>
</g>
<!-- StudentPage&#45;&gt;StudentPageModule -->
<g id="edge2" class="edge">
<title>StudentPage&#45;&gt;StudentPageModule</title>
<path fill="none" stroke="black" d="M67,-122.11C67,-141.34 67,-169 67,-169 67,-169 135.19,-169 135.19,-169"/>
<polygon fill="black" stroke="black" points="135.19,-172.5 145.19,-169 135.19,-165.5 135.19,-172.5"/>
</g>
<!-- StudentPageRoutingModule -->
<g id="node4" class="node">
<title>StudentPageRoutingModule</title>
<polygon fill="#8dd3c7" stroke="black" points="490.16,-122 487.16,-126 466.16,-126 463.16,-122 315.84,-122 315.84,-86 490.16,-86 490.16,-122"/>
<text text-anchor="middle" x="403" y="-99.8" font-family="Times,serif" font-size="14.00">StudentPageRoutingModule</text>
</g>
<!-- StudentPageRoutingModule&#45;&gt;StudentPageModule -->
<g id="edge3" class="edge">
<title>StudentPageRoutingModule&#45;&gt;StudentPageModule</title>
<path fill="none" stroke="black" d="M403,-122.11C403,-141.34 403,-169 403,-169 403,-169 284.8,-169 284.8,-169"/>
<polygon fill="black" stroke="black" points="284.8,-165.5 274.8,-169 284.8,-172.5 284.8,-165.5"/>
</g>
</g>
</svg>
