<svg width="1em" height="1em" viewBox="0 0 42 42" fill="none" xmlns="http://www.w3.org/2000/svg">
<path d="M40.4984 24.1567V18.5455L35.5705 18.1285C35.2257 16.2915 34.558 14.5705 33.627 13.0313L36.9185 9.09404L33 5.12539L29.2257 8.35423C27.7461 7.33542 26.0815 6.57994 24.2915 6.1442L23.8683 1H18.3229L17.9122 5.9906C16.0972 6.34169 14.4013 7.01567 12.8777 7.95925L8.99059 4.62382L5.06897 8.59248L8.26332 12.4138C7.25705 13.9091 6.51097 15.5987 6.0815 17.4107L1 17.8401V23.4545L5.9279 23.8715C6.27273 25.7085 6.94044 27.4295 7.87147 28.9687L4.57994 32.9091L8.49843 36.8777L12.2727 33.6458C13.7492 34.6646 15.4169 35.4201 17.2069 35.8558L17.6301 41H23.1724L23.5831 36.0094C25.395 35.6614 27.094 34.9843 28.6176 34.0408L32.5078 37.373L36.4263 33.4044L33.232 29.5831C34.2382 28.0878 34.9843 26.3981 35.4138 24.5862L40.4984 24.1567Z" stroke="currentColor" stroke-width="2"/>
<path d="M10.1282 20.9969C10.1282 15.0565 14.8837 10.2415 20.7489 10.2415" stroke="currentColor" stroke-width="2"/>
<path d="M26.8962 20.9967C26.8962 24.4356 24.1439 27.2224 20.7489 27.2224C17.3539 27.2224 14.6016 24.4356 14.6016 20.9967C14.6016 17.5578 17.3539 14.771 20.7489 14.771C24.1439 14.771 26.8962 17.561 26.8962 20.9967Z" stroke="currentColor" stroke-width="2"/>
</svg>
