<svg width="1em" height="1em" viewBox="0 0 40 41" fill="none" xmlns="http://www.w3.org/2000/svg">
<path fill-rule="evenodd" clip-rule="evenodd" d="M18.021 1H5.00071C2.79157 1 1 2.79086 1 5V7V9V33V35V37C1 39.2091 2.79086 41 5 41H26.2308C28.4399 41 30.2308 39.2091 30.2308 37V35V33V17.689C29.5434 18.2473 28.8489 18.8234 28.2308 19.3575V33H24.3583C23.8817 28.4424 20.1864 24.8333 15.6154 24.8333C11.0444 24.8333 7.34904 28.4424 6.87251 33H3V9H17.5385H18.0032C18.0048 8.48465 18.0069 7.79674 18.009 7H17.5385H3V5C3 3.89589 3.89568 3 5.00071 3H5.04635H5.09194H5.13748H5.18298H5.22842H5.27382H5.31917H5.36447H5.40972H5.45493H5.50009H5.5452H5.59026H5.63528H5.68025H5.72518H5.77006H5.81489H5.85968H5.90442H5.94912H5.99377H6.03837H6.08293H6.12745H6.17192H6.21635H6.26074H6.30508H6.34937H6.39362H6.43783H6.482H6.52612H6.57021H6.61424H6.65824H6.70219H6.74611H6.78998H6.83381H6.87759H6.92134H6.96505H7.00871H7.05233H7.09592H7.13946H7.18296H7.22643H7.26985H7.31324H7.35658H7.39989H7.44316H7.48638H7.52957H7.57273H7.61584H7.65892H7.70195H7.74496H7.78792H7.83085H7.87374H7.91659H7.9594H8.00218H8.04493H8.08764H8.13031H8.17294H8.21554H8.25811H8.30064H8.34314H8.3856H8.42803H8.47042H8.51278H8.5551H8.59739H8.63965H8.68187H8.72407H8.76622H8.80835H8.85044H8.8925H8.93453H8.97653H9.01849H9.06043H9.10233H9.1442H9.18604H9.22785H9.26963H9.31138H9.3531H9.39478H9.43644H9.47807H9.51967H9.56124H9.60278H9.64429H9.68578H9.72723H9.76866H9.81006H9.85143H9.89277H9.93409H9.97538H10.0166H10.0579H10.0991H10.1403H10.1814H10.2225H10.2636H10.3047H10.3458H10.3868H10.4278H10.4688H10.5097H10.5507H10.5916H10.6324H10.6733H10.7141H10.7549H10.7957H10.8365H10.8772H10.9179H10.9586H10.9993H11.0399H11.0805H11.1211H11.1617H11.2023H11.2428H11.2833H11.3238H11.3643H11.4048H11.4452H11.4856H11.526H11.5664H11.6067H11.6471H11.6874H11.7277H11.7679H11.8082H11.8484H11.8887H11.9289H11.969H12.0092H12.0494H12.0895H12.1296H12.1697H12.2098H12.2499H12.2899H12.3299H12.37H12.41H12.45H12.4899H12.5299H12.5698H12.6097H12.6497H12.6896H12.7294H12.7693H12.8092H12.849H12.8888H12.9286H12.9684H13.0082H13.048H13.0878H13.1275H13.1673H13.207H13.2467H13.2864H13.3261H13.3658H13.4054H13.4451H13.4847H13.5244H13.564H13.6036H13.6432H13.6828H13.7224H13.762H13.8016H13.8411H13.8807H13.9202H13.9598H13.9993H14.0388H14.0783H14.1178H14.1573H14.1968H14.2363H14.2758H14.3153H14.3547H14.3942H14.4336H14.4731H14.5125H14.552H14.5914H14.6308H14.6702H14.7097H14.7491H14.7885H14.8279H14.8673H14.9067H14.9461H14.9854H15.0248H15.0642H15.1036H15.143H15.1824H15.2217H15.2611H15.3005H15.3398H15.3792H15.4186H15.4579H15.4973H15.5367H15.576H15.6154H15.6547H15.6941H15.7335H15.7728H15.8122H15.8516H15.8909H15.9303H15.9697H16.009H16.0484H16.0878H16.1272H16.1666H16.2059H16.2453H16.2847H16.3241H16.3635H16.4029H16.4423H16.4817H16.5211H16.5605H16.6H16.6394H16.6788H16.7182H16.7577H16.7971H16.8366H16.876H16.9155H16.955H16.9945H17.0339H17.0734H17.1129H17.1524H17.1919H17.2315H17.271H17.3105H17.3501H17.3896H17.4292H17.4688H17.5083H17.5479H17.5875H17.6271H17.6668H17.7064H17.746H17.7857H17.8253H17.865H17.9047H17.9444H17.9841H18.0181C18.0192 2.33383 18.0202 1.66046 18.021 1ZM3 37V35H7.82051H23.4103H28.2308V37C28.2308 38.1046 27.3353 39 26.2308 39H5C3.89543 39 3 38.1046 3 37ZM22.345 33C21.8818 29.483 19.0097 26.8333 15.6154 26.8333C12.221 26.8333 9.349 29.483 8.88575 33H22.345ZM12.1612 17.6667C12.1612 15.5972 13.7511 14 15.6154 14C17.4797 14 19.0696 15.5972 19.0696 17.6667C19.0696 19.7361 17.4797 21.3333 15.6154 21.3333C13.7511 21.3333 12.1612 19.7361 12.1612 17.6667ZM15.6154 12C12.5597 12 10.1612 14.5815 10.1612 17.6667C10.1612 20.7519 12.5597 23.3333 15.6154 23.3333C18.6711 23.3333 21.0696 20.7519 21.0696 17.6667C21.0696 14.5815 18.6711 12 15.6154 12Z" fill="currentColor"/>
<path d="M25.3333 7H25.3431M29.2308 7H29.2405M33.1282 7H33.138M26.3077 13H22.4103C21.334 13 20.4615 12.1046 20.4615 11V3C20.4615 1.89543 21.334 1 22.4103 1H36.0513C37.1275 1 38 1.89543 38 3V11C38 12.1046 37.1275 13 36.0513 13H31.1795L26.3077 18V13Z" stroke="currentColor" stroke-width="2" stroke-linecap="round" stroke-linejoin="round"/>
</svg>
