<svg width="1em" height="1em" viewBox="0 0 30 40" fill="none" xmlns="http://www.w3.org/2000/svg">
<path fill-rule="evenodd" clip-rule="evenodd" d="M20 -7.82013e-05H1.99997H-3.05176e-05V1.99992V8.31738V18.4444V37.9999V39.9999H1.99997H28H30V37.9999V18.4444V10H28V18.4444V37.9999H1.99997V18.4444V8.31738V1.99992H20V-7.82013e-05ZM17 14.8H10V13.2H17V14.8ZM9.99997 11.8H24V10.2H9.99997V11.8ZM24 20.8H9.99997V19.2H24V20.8ZM9.99997 31.2V32.7999H18V31.2H9.99997ZM24 29.8H9.99997V28.2H24V29.8ZM9.99997 23.8H14V22.2H9.99997V23.8ZM30 9L21 0V9L30 9ZM26.1373 7.4L22.6 3.86274V7.4L26.1373 7.4ZM6.8244 10.5022L5.19478 12.5526L4.43493 12.0604L3.56507 13.4033L4.93433 14.2902L5.54375 14.685L5.99554 14.1165L8.07695 11.4978L6.8244 10.5022ZM5.19478 21.5526L6.8244 19.5022L8.07695 20.4978L5.99554 23.1165L5.54375 23.685L4.93433 23.2902L3.56507 22.4033L4.43493 21.0604L5.19478 21.5526ZM6.8244 28.5022L5.19478 30.5526L4.43493 30.0604L3.56507 31.4033L4.93433 32.2902L5.54375 32.685L5.99554 32.1165L8.07695 29.4978L6.8244 28.5022Z" fill="currentColor"/>
</svg>
