<svg width="1em" height="1em" viewBox="0 0 40 40" fill="none" xmlns="http://www.w3.org/2000/svg">
<mask id="path-1-outside-1_2318_48080" maskUnits="userSpaceOnUse" x="2" y="1" width="37" height="37" fill="black">
<rect fill="white" x="2" y="1" width="37" height="37"/>
<path d="M37.0868 31.5143L36.7076 31.1352C33.7851 28.2131 28.4442 22.8729 24.0181 18.4438L32.691 9.77203L34.5494 9.90191C34.563 9.90269 34.5766 9.90308 34.5898 9.90308C34.7994 9.90308 34.9947 9.78953 35.0974 9.60403L37.9269 4.50454C38.0529 4.27821 38.0132 3.99588 37.8296 3.81271L36.1911 2.17471C36.0083 1.99155 35.7255 1.95188 35.4991 2.07749L30.399 4.90704C30.2018 5.01632 30.0859 5.23021 30.1015 5.45498L30.2314 7.31231L21.5585 15.9841C19.3423 13.7682 17.6201 12.0462 16.9745 11.4007C17.8543 8.84453 17.2137 6.00993 15.2853 4.08182C13.3842 2.18133 10.6185 1.51983 8.06629 2.35594C8.05734 2.35905 8.04995 2.36371 8.041 2.36721C8.03167 2.37071 8.0235 2.37499 8.01456 2.37888C7.95038 2.40688 7.8936 2.4446 7.84537 2.49127C7.84265 2.49399 7.83915 2.49438 7.83642 2.4971C7.83292 2.5006 7.83176 2.50527 7.82865 2.50877C7.7812 2.55855 7.74347 2.61532 7.71624 2.67794C7.71235 2.68649 7.70924 2.69505 7.70613 2.70399C7.68318 2.76466 7.67035 2.82882 7.66879 2.89532C7.66879 2.90427 7.66879 2.91243 7.66918 2.92138C7.67035 2.97699 7.67696 3.0326 7.69524 3.08821C7.69835 3.09755 7.70341 3.10532 7.70691 3.11427C7.71002 3.12282 7.7143 3.13099 7.71819 3.13916C7.74658 3.20332 7.78392 3.2601 7.83059 3.30832C7.83331 3.31104 7.83409 3.31493 7.83681 3.31766L10.594 6.07448C10.8569 6.33737 11.0016 6.6862 11.002 7.0572C11.0024 7.42781 10.8581 7.77587 10.5959 8.03798L9.21326 9.42086C8.67186 9.9618 7.79092 9.96025 7.24952 9.41892L4.49235 6.66209C4.48963 6.65937 4.48613 6.65898 4.48379 6.65626C4.43556 6.60959 4.37839 6.57187 4.31422 6.54348C4.30527 6.53959 4.2971 6.53531 4.28816 6.53181C4.27921 6.52831 4.27143 6.52326 4.26249 6.52053C4.20765 6.50265 4.15203 6.49604 4.09719 6.49487C4.08785 6.49448 4.07891 6.49409 4.06957 6.49448C4.00346 6.49604 3.93928 6.50887 3.87861 6.53181C3.87005 6.53492 3.86188 6.53803 3.85333 6.54192C3.79032 6.56915 3.73314 6.60726 3.68336 6.65509C3.67986 6.6582 3.67558 6.65937 3.67208 6.66248C3.66936 6.6652 3.66897 6.6687 3.66625 6.67103C3.61958 6.71926 3.58185 6.77603 3.55385 6.8402C3.54996 6.84915 3.54568 6.8577 3.54218 6.86703C3.53868 6.87598 3.53401 6.88376 3.5309 6.8927C2.69741 9.44614 3.3586 12.2115 5.257 14.1101C6.61633 15.4688 8.42566 16.1902 10.2708 16.1902C11.0432 16.1902 11.8203 16.0557 12.5744 15.7967L15.4985 18.7207C15.4475 18.7168 15.3985 18.7059 15.3472 18.7059C14.7961 18.7059 14.2776 18.9206 13.8883 19.3103L3.6048 29.5913C3.21469 29.981 3 30.4994 3 31.0504C3 31.6015 3.21469 32.1198 3.6048 32.5095L4.4974 33.4024L4.49857 33.4036L7.49066 36.3957C7.88037 36.7853 8.39883 37 8.94995 37C9.50146 37 10.0199 36.7853 10.4092 36.3957L20.6919 26.1139C21.082 25.7242 21.2967 25.2058 21.2967 24.6548C21.2967 24.6038 21.2858 24.5548 21.282 24.5043L32.686 35.9142C33.2915 36.5197 34.0873 36.8223 34.8842 36.8223C35.6808 36.8223 36.4781 36.5197 37.0864 35.9142C37.6729 35.3282 37.9957 34.5477 37.9957 33.7162C37.9961 32.8821 37.6729 32.1004 37.0868 31.5143ZM31.2395 7.9462C31.2422 7.94348 31.243 7.93959 31.2457 7.93686C31.2932 7.88748 31.3309 7.83031 31.3585 7.76692C31.362 7.75914 31.3659 7.75214 31.369 7.74437C31.3924 7.68448 31.4044 7.61992 31.4064 7.55303C31.4067 7.54331 31.4075 7.53398 31.4071 7.52387C31.4071 7.51414 31.4087 7.5052 31.4079 7.49548L31.2854 5.74276L35.6796 3.30482L36.6994 4.32488L34.2611 8.71853L32.5082 8.59564C32.4981 8.59486 32.4888 8.59681 32.479 8.59642C32.4701 8.59642 32.4615 8.59681 32.4526 8.5972C32.3857 8.59875 32.3211 8.6112 32.2608 8.63453C32.2519 8.63803 32.2441 8.64231 32.2352 8.6462C32.1741 8.67342 32.1181 8.70997 32.0699 8.75586C32.066 8.75936 32.0613 8.76053 32.0574 8.76403L21.1703 19.6502L20.352 18.8319L31.2395 7.9462ZM13.1466 14.7272C12.9871 14.5604 12.7366 14.4978 12.5095 14.5903C10.2933 15.4895 7.76797 14.9792 6.07688 13.2887C4.72649 11.9381 4.12792 10.0629 4.40717 8.21842L6.42808 10.2395C6.92592 10.7369 7.57934 10.9857 8.23275 10.9857C8.885 10.9857 9.53724 10.7376 10.0335 10.2414L11.4162 8.85892C11.8977 8.37747 12.1626 7.73775 12.1622 7.05681C12.1618 6.37626 11.8961 5.73576 11.4139 5.25393L9.39178 3.2321C11.2357 2.95132 13.1112 3.55021 14.4639 4.90237C16.1293 6.56759 16.6466 9.04131 15.8007 11.2323L15.1932 11.8436C14.9672 12.0707 14.9687 12.4382 15.1959 12.6642C15.3091 12.777 15.4572 12.833 15.605 12.833C15.7544 12.833 15.9034 12.7758 16.0169 12.6615L16.3043 12.3725C17.0324 13.1005 18.6683 14.7362 20.7371 16.8047L19.5282 18.0133C19.2148 17.7135 18.8068 17.5459 18.3719 17.5459C17.9239 17.5459 17.5027 17.7205 17.1861 18.0371L16.8212 18.4018L13.1466 14.7272ZM7.00799 34.2712L5.72956 32.9925L14.6047 24.1185C14.9462 23.777 15.542 23.777 15.8835 24.1185C16.2363 24.4708 16.2363 25.044 15.8835 25.3968L7.00799 34.2712ZM19.8721 25.2933L9.58897 35.5747C9.24826 35.9154 8.65241 35.9154 8.3117 35.5747L7.82865 35.0917L16.7042 26.2173C17.5093 25.4123 17.5093 24.1025 16.7042 23.2975C16.3141 22.9075 15.7956 22.6924 15.2441 22.6924C14.6922 22.6924 14.1738 22.9071 13.784 23.2975L4.90851 32.172L4.42545 31.6886C4.2551 31.5178 4.16097 31.2911 4.16097 31.05C4.16097 30.8089 4.2551 30.5822 4.42545 30.4115L14.7081 20.1297C14.8785 19.9593 15.1053 19.8652 15.3464 19.8652C15.5879 19.8652 15.8147 19.9589 15.985 20.1297L19.8717 24.0158C20.042 24.1861 20.1361 24.4129 20.1361 24.654C20.1365 24.8959 20.0424 25.1226 19.8721 25.2933ZM21.1439 21.9944L20.3178 22.8204L17.181 19.6844L18.0075 18.8584C18.202 18.6639 18.5419 18.6636 18.7371 18.8584L19.1175 19.2383C19.1175 19.2383 19.1191 19.2414 19.1206 19.243L20.7596 20.8818C20.7596 20.8818 20.7627 20.8833 20.7643 20.8849L21.1447 21.2652C21.345 21.4663 21.345 21.7933 21.1439 21.9944ZM36.2669 35.0925C35.5042 35.8516 34.2662 35.852 33.5074 35.0933L21.6001 23.1797L21.9649 22.8149C22.6098 22.1702 22.6156 21.1287 21.9886 20.473L23.1975 19.2644C27.6239 23.6938 32.9648 29.0336 35.8869 31.9557L36.2661 32.3349C36.6329 32.7016 36.8351 33.192 36.8351 33.7158C36.8351 34.237 36.6329 34.7262 36.2669 35.0925Z"/>
</mask>
<path d="M37.0868 31.5143L36.7076 31.1352C33.7851 28.2131 28.4442 22.8729 24.0181 18.4438L32.691 9.77203L34.5494 9.90191C34.563 9.90269 34.5766 9.90308 34.5898 9.90308C34.7994 9.90308 34.9947 9.78953 35.0974 9.60403L37.9269 4.50454C38.0529 4.27821 38.0132 3.99588 37.8296 3.81271L36.1911 2.17471C36.0083 1.99155 35.7255 1.95188 35.4991 2.07749L30.399 4.90704C30.2018 5.01632 30.0859 5.23021 30.1015 5.45498L30.2314 7.31231L21.5585 15.9841C19.3423 13.7682 17.6201 12.0462 16.9745 11.4007C17.8543 8.84453 17.2137 6.00993 15.2853 4.08182C13.3842 2.18133 10.6185 1.51983 8.06629 2.35594C8.05734 2.35905 8.04995 2.36371 8.041 2.36721C8.03167 2.37071 8.0235 2.37499 8.01456 2.37888C7.95038 2.40688 7.8936 2.4446 7.84537 2.49127C7.84265 2.49399 7.83915 2.49438 7.83642 2.4971C7.83292 2.5006 7.83176 2.50527 7.82865 2.50877C7.7812 2.55855 7.74347 2.61532 7.71624 2.67794C7.71235 2.68649 7.70924 2.69505 7.70613 2.70399C7.68318 2.76466 7.67035 2.82882 7.66879 2.89532C7.66879 2.90427 7.66879 2.91243 7.66918 2.92138C7.67035 2.97699 7.67696 3.0326 7.69524 3.08821C7.69835 3.09755 7.70341 3.10532 7.70691 3.11427C7.71002 3.12282 7.7143 3.13099 7.71819 3.13916C7.74658 3.20332 7.78392 3.2601 7.83059 3.30832C7.83331 3.31104 7.83409 3.31493 7.83681 3.31766L10.594 6.07448C10.8569 6.33737 11.0016 6.6862 11.002 7.0572C11.0024 7.42781 10.8581 7.77587 10.5959 8.03798L9.21326 9.42086C8.67186 9.9618 7.79092 9.96025 7.24952 9.41892L4.49235 6.66209C4.48963 6.65937 4.48613 6.65898 4.48379 6.65626C4.43556 6.60959 4.37839 6.57187 4.31422 6.54348C4.30527 6.53959 4.2971 6.53531 4.28816 6.53181C4.27921 6.52831 4.27143 6.52326 4.26249 6.52053C4.20765 6.50265 4.15203 6.49604 4.09719 6.49487C4.08785 6.49448 4.07891 6.49409 4.06957 6.49448C4.00346 6.49604 3.93928 6.50887 3.87861 6.53181C3.87005 6.53492 3.86188 6.53803 3.85333 6.54192C3.79032 6.56915 3.73314 6.60726 3.68336 6.65509C3.67986 6.6582 3.67558 6.65937 3.67208 6.66248C3.66936 6.6652 3.66897 6.6687 3.66625 6.67103C3.61958 6.71926 3.58185 6.77603 3.55385 6.8402C3.54996 6.84915 3.54568 6.8577 3.54218 6.86703C3.53868 6.87598 3.53401 6.88376 3.5309 6.8927C2.69741 9.44614 3.3586 12.2115 5.257 14.1101C6.61633 15.4688 8.42566 16.1902 10.2708 16.1902C11.0432 16.1902 11.8203 16.0557 12.5744 15.7967L15.4985 18.7207C15.4475 18.7168 15.3985 18.7059 15.3472 18.7059C14.7961 18.7059 14.2776 18.9206 13.8883 19.3103L3.6048 29.5913C3.21469 29.981 3 30.4994 3 31.0504C3 31.6015 3.21469 32.1198 3.6048 32.5095L4.4974 33.4024L4.49857 33.4036L7.49066 36.3957C7.88037 36.7853 8.39883 37 8.94995 37C9.50146 37 10.0199 36.7853 10.4092 36.3957L20.6919 26.1139C21.082 25.7242 21.2967 25.2058 21.2967 24.6548C21.2967 24.6038 21.2858 24.5548 21.282 24.5043L32.686 35.9142C33.2915 36.5197 34.0873 36.8223 34.8842 36.8223C35.6808 36.8223 36.4781 36.5197 37.0864 35.9142C37.6729 35.3282 37.9957 34.5477 37.9957 33.7162C37.9961 32.8821 37.6729 32.1004 37.0868 31.5143ZM31.2395 7.9462C31.2422 7.94348 31.243 7.93959 31.2457 7.93686C31.2932 7.88748 31.3309 7.83031 31.3585 7.76692C31.362 7.75914 31.3659 7.75214 31.369 7.74437C31.3924 7.68448 31.4044 7.61992 31.4064 7.55303C31.4067 7.54331 31.4075 7.53398 31.4071 7.52387C31.4071 7.51414 31.4087 7.5052 31.4079 7.49548L31.2854 5.74276L35.6796 3.30482L36.6994 4.32488L34.2611 8.71853L32.5082 8.59564C32.4981 8.59486 32.4888 8.59681 32.479 8.59642C32.4701 8.59642 32.4615 8.59681 32.4526 8.5972C32.3857 8.59875 32.3211 8.6112 32.2608 8.63453C32.2519 8.63803 32.2441 8.64231 32.2352 8.6462C32.1741 8.67342 32.1181 8.70997 32.0699 8.75586C32.066 8.75936 32.0613 8.76053 32.0574 8.76403L21.1703 19.6502L20.352 18.8319L31.2395 7.9462ZM13.1466 14.7272C12.9871 14.5604 12.7366 14.4978 12.5095 14.5903C10.2933 15.4895 7.76797 14.9792 6.07688 13.2887C4.72649 11.9381 4.12792 10.0629 4.40717 8.21842L6.42808 10.2395C6.92592 10.7369 7.57934 10.9857 8.23275 10.9857C8.885 10.9857 9.53724 10.7376 10.0335 10.2414L11.4162 8.85892C11.8977 8.37747 12.1626 7.73775 12.1622 7.05681C12.1618 6.37626 11.8961 5.73576 11.4139 5.25393L9.39178 3.2321C11.2357 2.95132 13.1112 3.55021 14.4639 4.90237C16.1293 6.56759 16.6466 9.04131 15.8007 11.2323L15.1932 11.8436C14.9672 12.0707 14.9687 12.4382 15.1959 12.6642C15.3091 12.777 15.4572 12.833 15.605 12.833C15.7544 12.833 15.9034 12.7758 16.0169 12.6615L16.3043 12.3725C17.0324 13.1005 18.6683 14.7362 20.7371 16.8047L19.5282 18.0133C19.2148 17.7135 18.8068 17.5459 18.3719 17.5459C17.9239 17.5459 17.5027 17.7205 17.1861 18.0371L16.8212 18.4018L13.1466 14.7272ZM7.00799 34.2712L5.72956 32.9925L14.6047 24.1185C14.9462 23.777 15.542 23.777 15.8835 24.1185C16.2363 24.4708 16.2363 25.044 15.8835 25.3968L7.00799 34.2712ZM19.8721 25.2933L9.58897 35.5747C9.24826 35.9154 8.65241 35.9154 8.3117 35.5747L7.82865 35.0917L16.7042 26.2173C17.5093 25.4123 17.5093 24.1025 16.7042 23.2975C16.3141 22.9075 15.7956 22.6924 15.2441 22.6924C14.6922 22.6924 14.1738 22.9071 13.784 23.2975L4.90851 32.172L4.42545 31.6886C4.2551 31.5178 4.16097 31.2911 4.16097 31.05C4.16097 30.8089 4.2551 30.5822 4.42545 30.4115L14.7081 20.1297C14.8785 19.9593 15.1053 19.8652 15.3464 19.8652C15.5879 19.8652 15.8147 19.9589 15.985 20.1297L19.8717 24.0158C20.042 24.1861 20.1361 24.4129 20.1361 24.654C20.1365 24.8959 20.0424 25.1226 19.8721 25.2933ZM21.1439 21.9944L20.3178 22.8204L17.181 19.6844L18.0075 18.8584C18.202 18.6639 18.5419 18.6636 18.7371 18.8584L19.1175 19.2383C19.1175 19.2383 19.1191 19.2414 19.1206 19.243L20.7596 20.8818C20.7596 20.8818 20.7627 20.8833 20.7643 20.8849L21.1447 21.2652C21.345 21.4663 21.345 21.7933 21.1439 21.9944ZM36.2669 35.0925C35.5042 35.8516 34.2662 35.852 33.5074 35.0933L21.6001 23.1797L21.9649 22.8149C22.6098 22.1702 22.6156 21.1287 21.9886 20.473L23.1975 19.2644C27.6239 23.6938 32.9648 29.0336 35.8869 31.9557L36.2661 32.3349C36.6329 32.7016 36.8351 33.192 36.8351 33.7158C36.8351 34.237 36.6329 34.7262 36.2669 35.0925Z" fill="currentColor"/>
<path d="M37.0868 31.5143L36.7076 31.1352C33.7851 28.2131 28.4442 22.8729 24.0181 18.4438L32.691 9.77203L34.5494 9.90191C34.563 9.90269 34.5766 9.90308 34.5898 9.90308C34.7994 9.90308 34.9947 9.78953 35.0974 9.60403L37.9269 4.50454C38.0529 4.27821 38.0132 3.99588 37.8296 3.81271L36.1911 2.17471C36.0083 1.99155 35.7255 1.95188 35.4991 2.07749L30.399 4.90704C30.2018 5.01632 30.0859 5.23021 30.1015 5.45498L30.2314 7.31231L21.5585 15.9841C19.3423 13.7682 17.6201 12.0462 16.9745 11.4007C17.8543 8.84453 17.2137 6.00993 15.2853 4.08182C13.3842 2.18133 10.6185 1.51983 8.06629 2.35594C8.05734 2.35905 8.04995 2.36371 8.041 2.36721C8.03167 2.37071 8.0235 2.37499 8.01456 2.37888C7.95038 2.40688 7.8936 2.4446 7.84537 2.49127C7.84265 2.49399 7.83915 2.49438 7.83642 2.4971C7.83292 2.5006 7.83176 2.50527 7.82865 2.50877C7.7812 2.55855 7.74347 2.61532 7.71624 2.67794C7.71235 2.68649 7.70924 2.69505 7.70613 2.70399C7.68318 2.76466 7.67035 2.82882 7.66879 2.89532C7.66879 2.90427 7.66879 2.91243 7.66918 2.92138C7.67035 2.97699 7.67696 3.0326 7.69524 3.08821C7.69835 3.09755 7.70341 3.10532 7.70691 3.11427C7.71002 3.12282 7.7143 3.13099 7.71819 3.13916C7.74658 3.20332 7.78392 3.2601 7.83059 3.30832C7.83331 3.31104 7.83409 3.31493 7.83681 3.31766L10.594 6.07448C10.8569 6.33737 11.0016 6.6862 11.002 7.0572C11.0024 7.42781 10.8581 7.77587 10.5959 8.03798L9.21326 9.42086C8.67186 9.9618 7.79092 9.96025 7.24952 9.41892L4.49235 6.66209C4.48963 6.65937 4.48613 6.65898 4.48379 6.65626C4.43556 6.60959 4.37839 6.57187 4.31422 6.54348C4.30527 6.53959 4.2971 6.53531 4.28816 6.53181C4.27921 6.52831 4.27143 6.52326 4.26249 6.52053C4.20765 6.50265 4.15203 6.49604 4.09719 6.49487C4.08785 6.49448 4.07891 6.49409 4.06957 6.49448C4.00346 6.49604 3.93928 6.50887 3.87861 6.53181C3.87005 6.53492 3.86188 6.53803 3.85333 6.54192C3.79032 6.56915 3.73314 6.60726 3.68336 6.65509C3.67986 6.6582 3.67558 6.65937 3.67208 6.66248C3.66936 6.6652 3.66897 6.6687 3.66625 6.67103C3.61958 6.71926 3.58185 6.77603 3.55385 6.8402C3.54996 6.84915 3.54568 6.8577 3.54218 6.86703C3.53868 6.87598 3.53401 6.88376 3.5309 6.8927C2.69741 9.44614 3.3586 12.2115 5.257 14.1101C6.61633 15.4688 8.42566 16.1902 10.2708 16.1902C11.0432 16.1902 11.8203 16.0557 12.5744 15.7967L15.4985 18.7207C15.4475 18.7168 15.3985 18.7059 15.3472 18.7059C14.7961 18.7059 14.2776 18.9206 13.8883 19.3103L3.6048 29.5913C3.21469 29.981 3 30.4994 3 31.0504C3 31.6015 3.21469 32.1198 3.6048 32.5095L4.4974 33.4024L4.49857 33.4036L7.49066 36.3957C7.88037 36.7853 8.39883 37 8.94995 37C9.50146 37 10.0199 36.7853 10.4092 36.3957L20.6919 26.1139C21.082 25.7242 21.2967 25.2058 21.2967 24.6548C21.2967 24.6038 21.2858 24.5548 21.282 24.5043L32.686 35.9142C33.2915 36.5197 34.0873 36.8223 34.8842 36.8223C35.6808 36.8223 36.4781 36.5197 37.0864 35.9142C37.6729 35.3282 37.9957 34.5477 37.9957 33.7162C37.9961 32.8821 37.6729 32.1004 37.0868 31.5143ZM31.2395 7.9462C31.2422 7.94348 31.243 7.93959 31.2457 7.93686C31.2932 7.88748 31.3309 7.83031 31.3585 7.76692C31.362 7.75914 31.3659 7.75214 31.369 7.74437C31.3924 7.68448 31.4044 7.61992 31.4064 7.55303C31.4067 7.54331 31.4075 7.53398 31.4071 7.52387C31.4071 7.51414 31.4087 7.5052 31.4079 7.49548L31.2854 5.74276L35.6796 3.30482L36.6994 4.32488L34.2611 8.71853L32.5082 8.59564C32.4981 8.59486 32.4888 8.59681 32.479 8.59642C32.4701 8.59642 32.4615 8.59681 32.4526 8.5972C32.3857 8.59875 32.3211 8.6112 32.2608 8.63453C32.2519 8.63803 32.2441 8.64231 32.2352 8.6462C32.1741 8.67342 32.1181 8.70997 32.0699 8.75586C32.066 8.75936 32.0613 8.76053 32.0574 8.76403L21.1703 19.6502L20.352 18.8319L31.2395 7.9462ZM13.1466 14.7272C12.9871 14.5604 12.7366 14.4978 12.5095 14.5903C10.2933 15.4895 7.76797 14.9792 6.07688 13.2887C4.72649 11.9381 4.12792 10.0629 4.40717 8.21842L6.42808 10.2395C6.92592 10.7369 7.57934 10.9857 8.23275 10.9857C8.885 10.9857 9.53724 10.7376 10.0335 10.2414L11.4162 8.85892C11.8977 8.37747 12.1626 7.73775 12.1622 7.05681C12.1618 6.37626 11.8961 5.73576 11.4139 5.25393L9.39178 3.2321C11.2357 2.95132 13.1112 3.55021 14.4639 4.90237C16.1293 6.56759 16.6466 9.04131 15.8007 11.2323L15.1932 11.8436C14.9672 12.0707 14.9687 12.4382 15.1959 12.6642C15.3091 12.777 15.4572 12.833 15.605 12.833C15.7544 12.833 15.9034 12.7758 16.0169 12.6615L16.3043 12.3725C17.0324 13.1005 18.6683 14.7362 20.7371 16.8047L19.5282 18.0133C19.2148 17.7135 18.8068 17.5459 18.3719 17.5459C17.9239 17.5459 17.5027 17.7205 17.1861 18.0371L16.8212 18.4018L13.1466 14.7272ZM7.00799 34.2712L5.72956 32.9925L14.6047 24.1185C14.9462 23.777 15.542 23.777 15.8835 24.1185C16.2363 24.4708 16.2363 25.044 15.8835 25.3968L7.00799 34.2712ZM19.8721 25.2933L9.58897 35.5747C9.24826 35.9154 8.65241 35.9154 8.3117 35.5747L7.82865 35.0917L16.7042 26.2173C17.5093 25.4123 17.5093 24.1025 16.7042 23.2975C16.3141 22.9075 15.7956 22.6924 15.2441 22.6924C14.6922 22.6924 14.1738 22.9071 13.784 23.2975L4.90851 32.172L4.42545 31.6886C4.2551 31.5178 4.16097 31.2911 4.16097 31.05C4.16097 30.8089 4.2551 30.5822 4.42545 30.4115L14.7081 20.1297C14.8785 19.9593 15.1053 19.8652 15.3464 19.8652C15.5879 19.8652 15.8147 19.9589 15.985 20.1297L19.8717 24.0158C20.042 24.1861 20.1361 24.4129 20.1361 24.654C20.1365 24.8959 20.0424 25.1226 19.8721 25.2933ZM21.1439 21.9944L20.3178 22.8204L17.181 19.6844L18.0075 18.8584C18.202 18.6639 18.5419 18.6636 18.7371 18.8584L19.1175 19.2383C19.1175 19.2383 19.1191 19.2414 19.1206 19.243L20.7596 20.8818C20.7596 20.8818 20.7627 20.8833 20.7643 20.8849L21.1447 21.2652C21.345 21.4663 21.345 21.7933 21.1439 21.9944ZM36.2669 35.0925C35.5042 35.8516 34.2662 35.852 33.5074 35.0933L21.6001 23.1797L21.9649 22.8149C22.6098 22.1702 22.6156 21.1287 21.9886 20.473L23.1975 19.2644C27.6239 23.6938 32.9648 29.0336 35.8869 31.9557L36.2661 32.3349C36.6329 32.7016 36.8351 33.192 36.8351 33.7158C36.8351 34.237 36.6329 34.7262 36.2669 35.0925Z" stroke="currentColor" stroke-width="0.5" mask="url(#path-1-outside-1_2318_48080)"/>
</svg>
