<svg width="1em" height="1em" viewBox="0 0 40 40" fill="none" xmlns="http://www.w3.org/2000/svg">
<path d="M20.8284 11.1689C23.1329 11.3803 25.1169 12.6735 26.2518 14.5161" stroke="currentColor" stroke-width="1.6" stroke-miterlimit="10" stroke-linecap="round"/>
<path d="M27.1962 17.1279C27.2395 17.4322 27.2569 17.7449 27.2569 18.0577C27.2569 18.4465 27.2222 18.8268 27.1616 19.1987" stroke="currentColor" stroke-width="1.5" stroke-miterlimit="10" stroke-linecap="round"/>
<path d="M30.4798 18.0579C30.4798 12.53 25.9141 8.05031 20.2654 7.99115C14.582 7.94043 9.88634 12.4455 9.85169 17.9902C9.83436 21.4726 11.6191 24.5493 14.3654 26.375C15.3618 27.0342 15.9336 28.1415 15.9336 29.3164V32.655H24.3979V29.3164C24.3979 28.133 24.9957 27.0258 26.0007 26.3581C28.7038 24.5493 30.4798 21.5064 30.4798 18.0579Z" stroke="currentColor" stroke-width="2" stroke-miterlimit="10"/>
<path d="M22.31 35.1987H24.3979V35.7312C24.3979 37.3963 23.0204 38.7403 21.3137 38.7403H19.0091C17.3024 38.7403 15.9249 37.3963 15.9249 35.7312V35.1987H19.8322" stroke="currentColor" stroke-width="1.6" stroke-miterlimit="10" stroke-linecap="square"/>
<path d="M20.378 30.1274H24.3979" stroke="currentColor" stroke-width="1.6" stroke-miterlimit="10" stroke-linecap="square"/>
<path d="M15.9334 30.1274H17.9088" stroke="currentColor" stroke-width="1.6" stroke-miterlimit="10" stroke-linecap="square"/>
<path d="M20.1614 0.975586V4.99044" stroke="currentColor" stroke-width="1.6" stroke-miterlimit="10" stroke-linecap="square"/>
<path d="M11.4111 3.26587L13.4644 6.73978" stroke="currentColor" stroke-width="1.6" stroke-miterlimit="10" stroke-linecap="square"/>
<path d="M5 9.521L8.56075 11.5242" stroke="currentColor" stroke-width="1.6" stroke-miterlimit="10" stroke-linecap="square"/>
<path d="M35.3314 9.521L31.7707 11.5242" stroke="currentColor" stroke-width="1.6" stroke-miterlimit="10" stroke-linecap="square"/>
<path d="M28.9203 3.26587L26.867 6.73978" stroke="currentColor" stroke-width="1.6" stroke-miterlimit="10" stroke-linecap="square"/>
</svg>
