<svg width="1em" height="1em" viewBox="0 0 40 40" fill="none" xmlns="http://www.w3.org/2000/svg">
<path d="M9.61489 4.08499C12.227 2.37923 15.2919 1.29126 18.6274 1.0507C29.0923 0.290761 38.1876 8.16352 38.9497 18.6277C39.7063 29.0919 31.8369 38.1893 21.372 38.9493C10.9071 39.7092 1.80626 31.8419 1.0497 21.3722C0.768059 17.4468 1.69582 13.7182 3.5182 10.5417" stroke="currentColor" stroke-width="2"/>
<path d="M14.1159 26.8785C14.1159 28.3379 12.9507 29.5153 11.5038 29.5153C10.068 29.5153 8.89728 28.3323 8.89728 26.8785C8.89728 25.4191 10.068 24.2361 11.5038 24.2361C12.9507 24.2361 14.1159 25.4191 14.1159 26.8785Z" stroke="currentColor" stroke-width="2"/>
<path d="M27.0602 26.8785C27.0602 28.3379 25.8894 29.5153 24.4536 29.5153C23.0123 29.5153 21.8416 28.3323 21.8416 26.8785C21.8416 25.4191 23.0068 24.2361 24.4536 24.2361C25.895 24.2361 27.0602 25.4191 27.0602 26.8785Z" stroke="currentColor" stroke-width="2"/>
<path d="M14.4858 26.8784H21.8416" stroke="currentColor" stroke-width="2"/>
<path d="M4.73889 6.2146L7.31784 8.27655L12.6745 20.7422L11.8959 23.5891" stroke="currentColor" stroke-width="2"/>
<path d="M28.2087 19.9409C28.2087 20.4052 27.8332 20.7424 27.3749 20.7424H12.6743L9.83582 11.5659H30.5778L28.2087 19.9409Z" stroke="currentColor" stroke-width="2"/>
</svg>
