<svg width="1em" height="1em" viewBox="0 0 40 40" fill="none" xmlns="http://www.w3.org/2000/svg">
<path d="M21.3351 25.4426L32.6681 29.1533C31.5861 31.299 30.0249 33.1643 28.0161 34.7064L21.3351 25.4426Z" stroke="currentColor" stroke-width="1.6"/>
<path d="M18.5316 21.3829V1.6709C20.552 1.70523 22.2882 2.00277 24.2512 2.64362C29.3021 4.29725 33.4117 7.83339 35.8224 12.5997C38.1699 17.2402 38.6348 22.5072 37.1425 27.4767L18.5316 21.3829Z" stroke="currentColor" stroke-width="1.8"/>
<path d="M18.1006 38.088C13.7557 38.088 9.66907 36.3829 6.59547 33.2902C0.247392 26.896 0.247392 16.4907 6.59547 10.0936C9.1611 7.51301 12.1744 5.95093 15.5637 5.45312V22.5473L16.4821 23.7975L25.4991 36.3028C23.2204 37.4729 20.6749 38.088 18.1006 38.088Z" stroke="currentColor" stroke-width="1.8"/>
</svg>
