<svg width="1em" height="1em" viewBox="0 0 42 38" fill="none" xmlns="http://www.w3.org/2000/svg">
<path fill-rule="evenodd" clip-rule="evenodd" d="M0.843628 16.0789L1.74371 17.8649L10.5428 35.3247L11.4429 37.1107L13.2289 36.2106L22.4908 31.543C23.0224 29.9619 24.0937 28.6252 25.6177 27.8572C27.1417 27.0891 28.8534 27.0233 30.4405 27.5366L39.7024 22.869L41.4884 21.9689L40.5883 20.1829L31.7892 2.7231L30.8891 0.937088L29.1031 1.83717L19.8412 6.50484C19.3096 8.08587 18.2383 9.42254 16.7143 10.1906C15.1903 10.9586 13.4786 11.0245 11.8916 10.5111L2.62964 15.1788L0.843628 16.0789ZM20.9099 30.1001L12.3288 34.4246L3.52973 16.9648L12.1108 12.6403C13.9191 13.0372 15.8499 12.8658 17.6144 11.9766C19.3789 11.0874 20.6653 9.63736 21.4221 7.94773L30.0032 3.62319L38.8023 21.083L30.2213 25.4075C28.4129 25.0106 26.4821 25.1819 24.7176 26.0712C22.9531 26.9604 21.6667 28.4104 20.9099 30.1001ZM12.519 20.5558L27.5418 12.985L26.8217 11.5561L11.799 19.127L12.519 20.5558ZM29.056 15.9896L14.0332 23.5605L13.3132 22.1317L28.3359 14.5608L29.056 15.9896ZM15.5473 26.5649L26.0633 21.2653L25.3432 19.8364L14.8273 25.1361L15.5473 26.5649Z" fill="currentColor"/>
</svg>
