<svg width="1em" height="1em" viewBox="0 0 40 40" fill="none" xmlns="http://www.w3.org/2000/svg">
<path d="M34.2727 20.966L20.2727 14.4433C20.1818 14.3501 20 14.3501 19.9091 14.3501C19.8182 14.3501 19.6364 14.3501 19.5455 14.4433L5.54545 20.966C5.27273 21.1524 5 21.4319 5 21.8046C5 22.1774 5.18182 22.4569 5.54545 22.6433L8.63636 24.041C8.81818 24.1342 8.90909 24.2274 8.90909 24.4137V29.6319C8.90909 30.0046 9.09091 30.2842 9.36364 30.3774L19.5455 35.5956H19.6364C19.6364 35.5956 19.6364 35.5956 19.7273 35.5956C19.8182 35.5956 19.9091 35.6887 20 35.6887C20.0909 35.6887 20.1818 35.6887 20.2727 35.5956C20.2727 35.5956 20.2727 35.5956 20.3636 35.5956C20.3636 35.5956 20.3636 35.5956 20.4545 35.5956L24.9091 33.266C25 33.266 25 33.266 25.0909 33.266C25.1818 33.266 25.2727 33.266 25.2727 33.3592C25.3636 33.4524 25.4545 33.5456 25.4545 33.7319V34.8501C25.4545 35.316 25.8182 35.6887 26.2727 35.6887C26.7273 35.6887 27.0909 35.316 27.0909 34.8501V32.4274C27.0909 32.241 27.1818 32.1478 27.3636 32.0547L30.4545 30.4706C30.7273 30.2842 30.9091 30.0046 30.9091 29.7251V24.5069C30.9091 24.3206 31 24.2274 31.1818 24.1342L34.2727 22.7365C34.5455 22.5501 34.8182 22.2706 34.8182 21.8978C34.8182 21.4319 34.6364 21.1524 34.2727 20.966ZM19.0909 32.8001C19.0909 32.9865 19 33.0796 18.9091 33.1728C18.8182 33.1728 18.7273 33.266 18.7273 33.266C18.6364 33.266 18.6364 33.266 18.5455 33.266L10.8182 29.2592C10.6364 29.166 10.5455 29.0728 10.5455 28.8865V25.6251C10.5455 25.4387 10.6364 25.3456 10.7273 25.2524C10.8182 25.2524 10.9091 25.1592 10.9091 25.1592C11 25.1592 11 25.1592 11.0909 25.1592L18.7273 28.7001C18.9091 28.7933 19 28.8865 19 29.0728V32.8001H19.0909ZM25.4545 30.8433C25.4545 31.0296 25.3636 31.1228 25.1818 31.216L21.3636 33.1728C21.2727 33.1728 21.2727 33.1728 21.1818 33.1728C21.0909 33.1728 21 33.1728 21 33.0797C20.9091 32.9865 20.8182 32.8933 20.8182 32.7069V29.166C20.8182 28.9796 20.9091 28.8865 21.0909 28.7933L24.9091 27.0228C25 27.0228 25 27.0228 25.0909 27.0228C25.1818 27.0228 25.2727 27.0228 25.2727 27.116C25.3636 27.2092 25.4545 27.3024 25.4545 27.4887V30.8433ZM29.2727 28.8865C29.2727 29.0728 29.1818 29.166 29 29.2592L27.7273 29.9115C27.6364 29.9115 27.6364 29.9115 27.5455 29.9115C27.4545 29.9115 27.3636 29.9115 27.3636 29.8183C27.1818 29.8183 27.1818 29.6319 27.1818 29.5387V26.2774C27.1818 26.091 27.2727 25.9978 27.4545 25.9046L28.7273 25.3456C28.8182 25.3456 28.8182 25.3456 28.9091 25.3456C29 25.3456 29.0909 25.3456 29.0909 25.4387C29.1818 25.5319 29.2727 25.6251 29.2727 25.8115V28.8865ZM31 22.1774L28.3636 23.3887C27.4545 23.8546 26.7273 23.5751 26.5455 23.5751L20.1818 20.966C20.0909 20.966 20 20.8728 19.9091 20.8728C19.5455 20.8728 19.2727 21.0592 19.0909 21.4319C18.9091 21.8978 19.0909 22.3637 19.5455 22.5501L24.2727 24.5069C24.4545 24.6001 24.5455 24.6933 24.5455 24.8796C24.5455 25.066 24.4545 25.2524 24.2727 25.2524L20.0909 27.2092C20 27.2092 20 27.2092 19.9091 27.2092C19.8182 27.2092 19.8182 27.2092 19.7273 27.2092L8.81818 22.0842C8.63636 21.991 8.54546 21.8978 8.54546 21.7115C8.54546 21.5251 8.63636 21.4319 8.81818 21.3387L19.7273 16.2137C19.8182 16.2137 19.8182 16.2137 19.9091 16.2137C20 16.2137 20 16.2137 20.0909 16.2137L31 21.3387C31.1818 21.4319 31.2727 21.5251 31.2727 21.7115C31.2727 21.991 31.1818 22.0842 31 22.1774Z" fill="currentColor"/>
<rect x="1" y="1" width="38" height="38" rx="3" stroke="currentColor" stroke-width="2"/>
<line y1="11" x2="39" y2="11" stroke="currentColor" stroke-width="2"/>
<circle cx="6" cy="6" r="1" fill="currentColor"/>
<circle cx="10" cy="6" r="1" fill="currentColor"/>
<circle cx="14" cy="6" r="1" fill="currentColor"/>
</svg>
