<svg width="1em" height="1em" viewBox="0 0 40 40" fill="none" xmlns="http://www.w3.org/2000/svg">
<path d="M32.5 20.0001C32.4998 17.9889 32.0107 16.0079 31.075 14.2276L29.2063 16.0976C29.7315 17.3315 30.0015 18.659 30 20.0001H32.5ZM29.2675 12.5001L27.5 10.7326L21.6063 16.6251C21.1058 16.3811 20.5568 16.2529 20 16.2501C19.2583 16.2501 18.5333 16.47 17.9166 16.8821C17.2999 17.2941 16.8193 17.8798 16.5355 18.565C16.2516 19.2502 16.1774 20.0043 16.3221 20.7317C16.4668 21.4591 16.8239 22.1273 17.3484 22.6517C17.8728 23.1762 18.541 23.5333 19.2684 23.678C19.9959 23.8227 20.7499 23.7485 21.4351 23.4646C22.1203 23.1808 22.706 22.7002 23.118 22.0835C23.5301 21.4668 23.75 20.7418 23.75 20.0001C23.7472 19.4433 23.619 18.8943 23.375 18.3938L29.2675 12.5001ZM20 21.2501C19.7528 21.2501 19.5111 21.1768 19.3055 21.0394C19.1 20.9021 18.9398 20.7069 18.8452 20.4784C18.7506 20.25 18.7258 19.9987 18.774 19.7562C18.8223 19.5138 18.9413 19.291 19.1161 19.1162C19.2909 18.9414 19.5137 18.8223 19.7561 18.7741C19.9986 18.7259 20.25 18.7506 20.4784 18.8452C20.7068 18.9398 20.902 19.1001 21.0393 19.3056C21.1767 19.5112 21.25 19.7529 21.25 20.0001C21.2497 20.3315 21.1179 20.6493 20.8835 20.8836C20.6492 21.118 20.3314 21.2498 20 21.2501ZM20 10.0001C21.3411 9.99871 22.6685 10.2687 23.9025 10.7938L25.7725 8.92384C23.8687 7.92703 21.7398 7.43861 19.5918 7.50587C17.4439 7.57313 15.3497 8.19379 13.5119 9.30777C11.6742 10.4217 10.1552 11.9913 9.10197 13.8645C8.04873 15.7377 7.49694 17.8511 7.50001 20.0001H10C10.0033 17.3489 11.058 14.8073 12.9326 12.9327C14.8072 11.058 17.3489 10.0034 20 10.0001V10.0001Z" fill="white"/>
<path d="M20 37.5C16.5388 37.5 13.1554 36.4737 10.2775 34.5507C7.39967 32.6278 5.15665 29.8947 3.83212 26.697C2.50758 23.4993 2.16102 19.9806 2.83627 16.5859C3.51151 13.1913 5.17822 10.0731 7.62564 7.62564C10.0731 5.17822 13.1913 3.51151 16.5859 2.83627C19.9806 2.16102 23.4993 2.50758 26.697 3.83212C29.8947 5.15665 32.6278 7.39967 34.5507 10.2775C36.4737 13.1554 37.5 16.5388 37.5 20C37.4947 24.6397 35.6493 29.0878 32.3685 32.3685C29.0878 35.6493 24.6397 37.4947 20 37.5V37.5ZM20 5.00001C17.0333 5.00001 14.1332 5.87974 11.6665 7.52796C9.19972 9.17618 7.27713 11.5189 6.14181 14.2598C5.0065 17.0006 4.70945 20.0166 5.28823 22.9264C5.86701 25.8361 7.29562 28.5088 9.39341 30.6066C11.4912 32.7044 14.1639 34.133 17.0737 34.7118C19.9834 35.2906 22.9994 34.9935 25.7403 33.8582C28.4812 32.7229 30.8238 30.8003 32.4721 28.3336C34.1203 25.8668 35 22.9667 35 20C34.9954 16.0232 33.4135 12.2106 30.6015 9.39852C27.7895 6.58648 23.9768 5.00464 20 5.00001V5.00001Z" fill="white"/>
</svg>
