<svg xmlns="http://www.w3.org/2000/svg" aria-hidden="true" role="img" width="1em" height="1em" preserveAspectRatio="xMidYMid meet" viewBox="0 0 24 24"><g fill="none"><path d="M12 14l9-5l-9-5l-9 5l9 5z"/><path d="M12 14l6.16-3.422a12.083 12.083 0 0 1 .665 6.479A11.952 11.952 0 0 0 12 20.055a11.952 11.952 0 0 0-6.824-2.998a12.078 12.078 0 0 1 .665-6.479L12 14z"/><path d="M12 14l9-5l-9-5l-9 5l9 5zm0 0l6.16-3.422a12.083 12.083 0 0 1 .665 6.479A11.952 11.952 0 0 0 12 20.055a11.952 11.952 0 0 0-6.824-2.998a12.078 12.078 0 0 1 .665-6.479L12 14zm-4 6v-7.5l4-2.222" stroke="currentColor" stroke-width="2" stroke-linecap="round" stroke-linejoin="round"/></g></svg>