<?xml version="1.0" encoding="UTF-8" standalone="no"?>
<!DOCTYPE svg PUBLIC "-//W3C//DTD SVG 1.1//EN"
 "http://www.w3.org/Graphics/SVG/1.1/DTD/svg11.dtd">
<!-- Generated by graphviz version 2.47.0 (20210316.0004)
 -->
<!-- Title: dependencies Pages: 1 -->
<svg width="971pt" height="211pt"
 viewBox="0.00 0.00 971.00 211.00" xmlns="http://www.w3.org/2000/svg" xmlns:xlink="http://www.w3.org/1999/xlink">
<g id="graph0" class="graph" transform="scale(1 1) rotate(0) translate(4 207)">
<title>dependencies</title>
<polygon fill="white" stroke="transparent" points="-4,4 -4,-207 967,-207 967,4 -4,4"/>
<text text-anchor="start" x="460.51" y="-42.4" font-family="Times-12" font-weight="bold" font-size="14.00">Legend</text>
<polygon fill="#ffffb3" stroke="transparent" points="247.5,-10 247.5,-30 267.5,-30 267.5,-10 247.5,-10"/>
<text text-anchor="start" x="271.13" y="-15.4" font-family="Times-12" font-size="14.00"> &#160;Declarations</text>
<polygon fill="#8dd3c7" stroke="transparent" points="360.5,-10 360.5,-30 380.5,-30 380.5,-10 360.5,-10"/>
<text text-anchor="start" x="384.23" y="-15.4" font-family="Times-12" font-size="14.00"> &#160;Module</text>
<polygon fill="#80b1d3" stroke="transparent" points="446.5,-10 446.5,-30 466.5,-30 466.5,-10 446.5,-10"/>
<text text-anchor="start" x="470.28" y="-15.4" font-family="Times-12" font-size="14.00"> &#160;Bootstrap</text>
<polygon fill="#fdb462" stroke="transparent" points="543.5,-10 543.5,-30 563.5,-30 563.5,-10 543.5,-10"/>
<text text-anchor="start" x="567.17" y="-15.4" font-family="Times-12" font-size="14.00"> &#160;Providers</text>
<polygon fill="#fb8072" stroke="transparent" points="639.5,-10 639.5,-30 659.5,-30 659.5,-10 639.5,-10"/>
<text text-anchor="start" x="663.23" y="-15.4" font-family="Times-12" font-size="14.00"> &#160;Exports</text>
<g id="clust1" class="cluster">
<title>cluster_AdminPageModule</title>
<polygon fill="none" stroke="black" stroke-dasharray="1,5" points="8,-70 8,-195 955,-195 955,-70 8,-70"/>
</g>
<g id="clust2" class="cluster">
<title>cluster_AdminPageModule_declarations</title>
<polygon fill="none" stroke="black" points="210,-78 210,-130 947,-130 947,-78 210,-78"/>
</g>
<g id="clust8" class="cluster">
<title>cluster_AdminPageModule_imports</title>
<polygon fill="none" stroke="black" points="16,-78 16,-130 202,-130 202,-78 16,-78"/>
</g>
<!-- AdminPage -->
<g id="node1" class="node">
<title>AdminPage</title>
<polygon fill="#ffffb3" stroke="black" points="939.1,-122 856.9,-122 856.9,-86 939.1,-86 939.1,-122"/>
<text text-anchor="middle" x="898" y="-99.8" font-family="Times,serif" font-size="14.00">AdminPage</text>
</g>
<!-- AdminPageModule -->
<g id="node6" class="node">
<title>AdminPageModule</title>
<polygon fill="#8dd3c7" stroke="black" points="583.65,-187 580.65,-191 559.65,-191 556.65,-187 458.35,-187 458.35,-151 583.65,-151 583.65,-187"/>
<text text-anchor="middle" x="521" y="-164.8" font-family="Times,serif" font-size="14.00">AdminPageModule</text>
</g>
<!-- AdminPage&#45;&gt;AdminPageModule -->
<g id="edge1" class="edge">
<title>AdminPage&#45;&gt;AdminPageModule</title>
<path fill="none" stroke="black" d="M898,-122.28C898,-143.32 898,-175 898,-175 898,-175 593.68,-175 593.68,-175"/>
<polygon fill="black" stroke="black" points="593.68,-171.5 583.68,-175 593.68,-178.5 593.68,-171.5"/>
</g>
<!-- ForgotPasswordComponent -->
<g id="node2" class="node">
<title>ForgotPasswordComponent</title>
<polygon fill="#ffffb3" stroke="black" points="839.32,-122 666.68,-122 666.68,-86 839.32,-86 839.32,-122"/>
<text text-anchor="middle" x="753" y="-99.8" font-family="Times,serif" font-size="14.00">ForgotPasswordComponent</text>
</g>
<!-- ForgotPasswordComponent&#45;&gt;AdminPageModule -->
<g id="edge2" class="edge">
<title>ForgotPasswordComponent&#45;&gt;AdminPageModule</title>
<path fill="none" stroke="black" d="M753,-122.02C753,-139.37 753,-163 753,-163 753,-163 593.78,-163 593.78,-163"/>
<polygon fill="black" stroke="black" points="593.78,-159.5 583.78,-163 593.78,-166.5 593.78,-159.5"/>
</g>
<!-- LoginComponent -->
<g id="node3" class="node">
<title>LoginComponent</title>
<polygon fill="#ffffb3" stroke="black" points="648.28,-122 533.72,-122 533.72,-86 648.28,-86 648.28,-122"/>
<text text-anchor="middle" x="591" y="-99.8" font-family="Times,serif" font-size="14.00">LoginComponent</text>
</g>
<!-- LoginComponent&#45;&gt;AdminPageModule -->
<g id="edge3" class="edge">
<title>LoginComponent&#45;&gt;AdminPageModule</title>
<path fill="none" stroke="black" d="M558.72,-122.11C558.72,-122.11 558.72,-140.99 558.72,-140.99"/>
<polygon fill="black" stroke="black" points="555.22,-140.99 558.72,-150.99 562.22,-140.99 555.22,-140.99"/>
</g>
<!-- RegisterComponent -->
<g id="node4" class="node">
<title>RegisterComponent</title>
<polygon fill="#ffffb3" stroke="black" points="515.98,-122 388.02,-122 388.02,-86 515.98,-86 515.98,-122"/>
<text text-anchor="middle" x="452" y="-99.8" font-family="Times,serif" font-size="14.00">RegisterComponent</text>
</g>
<!-- RegisterComponent&#45;&gt;AdminPageModule -->
<g id="edge4" class="edge">
<title>RegisterComponent&#45;&gt;AdminPageModule</title>
<path fill="none" stroke="black" d="M487.08,-122.11C487.08,-122.11 487.08,-140.99 487.08,-140.99"/>
<polygon fill="black" stroke="black" points="483.58,-140.99 487.08,-150.99 490.58,-140.99 483.58,-140.99"/>
</g>
<!-- VerifyEmailComponent -->
<g id="node5" class="node">
<title>VerifyEmailComponent</title>
<polygon fill="#ffffb3" stroke="black" points="369.8,-122 218.2,-122 218.2,-86 369.8,-86 369.8,-122"/>
<text text-anchor="middle" x="294" y="-99.8" font-family="Times,serif" font-size="14.00">VerifyEmailComponent</text>
</g>
<!-- VerifyEmailComponent&#45;&gt;AdminPageModule -->
<g id="edge5" class="edge">
<title>VerifyEmailComponent&#45;&gt;AdminPageModule</title>
<path fill="none" stroke="black" d="M294,-122.02C294,-139.37 294,-163 294,-163 294,-163 448.07,-163 448.07,-163"/>
<polygon fill="black" stroke="black" points="448.07,-166.5 458.07,-163 448.07,-159.5 448.07,-166.5"/>
</g>
<!-- AdminPageRoutingModule -->
<g id="node7" class="node">
<title>AdminPageRoutingModule</title>
<polygon fill="#8dd3c7" stroke="black" points="194.27,-122 191.27,-126 170.27,-126 167.27,-122 23.73,-122 23.73,-86 194.27,-86 194.27,-122"/>
<text text-anchor="middle" x="109" y="-99.8" font-family="Times,serif" font-size="14.00">AdminPageRoutingModule</text>
</g>
<!-- AdminPageRoutingModule&#45;&gt;AdminPageModule -->
<g id="edge6" class="edge">
<title>AdminPageRoutingModule&#45;&gt;AdminPageModule</title>
<path fill="none" stroke="black" d="M109,-122.28C109,-143.32 109,-175 109,-175 109,-175 447.98,-175 447.98,-175"/>
<polygon fill="black" stroke="black" points="447.98,-178.5 457.98,-175 447.98,-171.5 447.98,-178.5"/>
</g>
</g>
</svg>
