<svg xmlns="http://www.w3.org/2000/svg" xmlns:xlink="http://www.w3.org/1999/xlink" aria-hidden="true" role="img" width="1em" height="1em" preserveAspectRatio="xMidYMid meet" viewBox="0 0 20 20"><rect x="0" y="0" width="20" height="20" fill="none" stroke="none" /><g fill="none"><path fill-rule="evenodd" clip-rule="evenodd" d="M3 17a1 1 0 0 1 1-1h12a1 1 0 1 1 0 2H4a1 1 0 0 1-1-1zm3.293-7.707a1 1 0 0 1 1.414 0L9 10.586V3a1 1 0 1 1 2 0v7.586l1.293-1.293a1 1 0 1 1 1.414 1.414l-3 3a1 1 0 0 1-1.414 0l-3-3a1 1 0 0 1 0-1.414z" fill="currentColor"/></g></svg>