<svg xmlns="http://www.w3.org/2000/svg" xmlns:xlink="http://www.w3.org/1999/xlink" aria-hidden="true" role="img" width="1em" height="1em" preserveAspectRatio="xMidYMid meet" viewBox="0 0 20 20"><rect x="0" y="0" width="20" height="20" fill="none" stroke="none" /><g fill="none"><path fill-rule="evenodd" clip-rule="evenodd" d="M18 10a8 8 0 1 1-16 0a8 8 0 0 1 16 0zm-8-3a1 1 0 0 0-.867.5a1 1 0 1 1-1.731-1A3 3 0 0 1 13 8a3.001 3.001 0 0 1-2 2.83V11a1 1 0 1 1-2 0v-1a1 1 0 0 1 1-1a1 1 0 1 0 0-2zm0 8a1 1 0 1 0 0-2a1 1 0 0 0 0 2z" fill="currentColor"/></g></svg>