<?xml version="1.0" encoding="UTF-8" standalone="no"?>
<!DOCTYPE svg PUBLIC "-//W3C//DTD SVG 1.1//EN"
 "http://www.w3.org/Graphics/SVG/1.1/DTD/svg11.dtd">
<!-- Generated by graphviz version 2.47.0 (20210316.0004)
 -->
<!-- Title: dependencies Pages: 1 -->
<svg width="752pt" height="211pt"
 viewBox="0.00 0.00 752.00 211.00" xmlns="http://www.w3.org/2000/svg" xmlns:xlink="http://www.w3.org/1999/xlink">
<g id="graph0" class="graph" transform="scale(1 1) rotate(0) translate(4 207)">
<title>dependencies</title>
<polygon fill="white" stroke="transparent" points="-4,4 -4,-207 748,-207 748,4 -4,4"/>
<text text-anchor="start" x="351.01" y="-42.4" font-family="Times-12" font-weight="bold" font-size="14.00">Legend</text>
<polygon fill="#ffffb3" stroke="transparent" points="138,-10 138,-30 158,-30 158,-10 138,-10"/>
<text text-anchor="start" x="161.63" y="-15.4" font-family="Times-12" font-size="14.00"> &#160;Declarations</text>
<polygon fill="#8dd3c7" stroke="transparent" points="251,-10 251,-30 271,-30 271,-10 251,-10"/>
<text text-anchor="start" x="274.73" y="-15.4" font-family="Times-12" font-size="14.00"> &#160;Module</text>
<polygon fill="#80b1d3" stroke="transparent" points="337,-10 337,-30 357,-30 357,-10 337,-10"/>
<text text-anchor="start" x="360.78" y="-15.4" font-family="Times-12" font-size="14.00"> &#160;Bootstrap</text>
<polygon fill="#fdb462" stroke="transparent" points="434,-10 434,-30 454,-30 454,-10 434,-10"/>
<text text-anchor="start" x="457.67" y="-15.4" font-family="Times-12" font-size="14.00"> &#160;Providers</text>
<polygon fill="#fb8072" stroke="transparent" points="530,-10 530,-30 550,-30 550,-10 530,-10"/>
<text text-anchor="start" x="553.73" y="-15.4" font-family="Times-12" font-size="14.00"> &#160;Exports</text>
<g id="clust1" class="cluster">
<title>cluster_ExamFormPageModule</title>
<polygon fill="none" stroke="black" stroke-dasharray="1,5" points="8,-70 8,-195 736,-195 736,-70 8,-70"/>
</g>
<g id="clust2" class="cluster">
<title>cluster_ExamFormPageModule_declarations</title>
<polygon fill="none" stroke="black" points="234,-78 234,-130 728,-130 728,-78 234,-78"/>
</g>
<g id="clust6" class="cluster">
<title>cluster_ExamFormPageModule_imports</title>
<polygon fill="none" stroke="black" points="16,-78 16,-130 226,-130 226,-78 16,-78"/>
</g>
<!-- ExamFormComponent -->
<g id="node1" class="node">
<title>ExamFormComponent</title>
<polygon fill="#ffffb3" stroke="black" points="720.32,-122 575.68,-122 575.68,-86 720.32,-86 720.32,-122"/>
<text text-anchor="middle" x="648" y="-99.8" font-family="Times,serif" font-size="14.00">ExamFormComponent</text>
</g>
<!-- ExamFormPageModule -->
<g id="node4" class="node">
<title>ExamFormPageModule</title>
<polygon fill="#8dd3c7" stroke="black" points="495.75,-187 492.75,-191 471.75,-191 468.75,-187 346.25,-187 346.25,-151 495.75,-151 495.75,-187"/>
<text text-anchor="middle" x="421" y="-164.8" font-family="Times,serif" font-size="14.00">ExamFormPageModule</text>
</g>
<!-- ExamFormComponent&#45;&gt;ExamFormPageModule -->
<g id="edge1" class="edge">
<title>ExamFormComponent&#45;&gt;ExamFormPageModule</title>
<path fill="none" stroke="black" d="M648,-122.11C648,-141.34 648,-169 648,-169 648,-169 505.96,-169 505.96,-169"/>
<polygon fill="black" stroke="black" points="505.96,-165.5 495.96,-169 505.96,-172.5 505.96,-165.5"/>
</g>
<!-- ExamFormPage -->
<g id="node2" class="node">
<title>ExamFormPage</title>
<polygon fill="#ffffb3" stroke="black" points="558.2,-122 451.8,-122 451.8,-86 558.2,-86 558.2,-122"/>
<text text-anchor="middle" x="505" y="-99.8" font-family="Times,serif" font-size="14.00">ExamFormPage</text>
</g>
<!-- ExamFormPage&#45;&gt;ExamFormPageModule -->
<g id="edge2" class="edge">
<title>ExamFormPage&#45;&gt;ExamFormPageModule</title>
<path fill="none" stroke="black" d="M473.89,-122.11C473.89,-122.11 473.89,-140.99 473.89,-140.99"/>
<polygon fill="black" stroke="black" points="470.39,-140.99 473.89,-150.99 477.39,-140.99 470.39,-140.99"/>
</g>
<!-- NonAcademicFormComponent -->
<g id="node3" class="node">
<title>NonAcademicFormComponent</title>
<polygon fill="#ffffb3" stroke="black" points="434.02,-122 241.98,-122 241.98,-86 434.02,-86 434.02,-122"/>
<text text-anchor="middle" x="338" y="-99.8" font-family="Times,serif" font-size="14.00">NonAcademicFormComponent</text>
</g>
<!-- NonAcademicFormComponent&#45;&gt;ExamFormPageModule -->
<g id="edge3" class="edge">
<title>NonAcademicFormComponent&#45;&gt;ExamFormPageModule</title>
<path fill="none" stroke="black" d="M390.19,-122.11C390.19,-122.11 390.19,-140.99 390.19,-140.99"/>
<polygon fill="black" stroke="black" points="386.69,-140.99 390.19,-150.99 393.69,-140.99 386.69,-140.99"/>
</g>
<!-- ExamFormPageRoutingModule -->
<g id="node5" class="node">
<title>ExamFormPageRoutingModule</title>
<polygon fill="#8dd3c7" stroke="black" points="218.37,-122 215.37,-126 194.37,-126 191.37,-122 23.63,-122 23.63,-86 218.37,-86 218.37,-122"/>
<text text-anchor="middle" x="121" y="-99.8" font-family="Times,serif" font-size="14.00">ExamFormPageRoutingModule</text>
</g>
<!-- ExamFormPageRoutingModule&#45;&gt;ExamFormPageModule -->
<g id="edge4" class="edge">
<title>ExamFormPageRoutingModule&#45;&gt;ExamFormPageModule</title>
<path fill="none" stroke="black" d="M121,-122.11C121,-141.34 121,-169 121,-169 121,-169 336.07,-169 336.07,-169"/>
<polygon fill="black" stroke="black" points="336.07,-172.5 346.07,-169 336.07,-165.5 336.07,-172.5"/>
</g>
</g>
</svg>
