<?xml version="1.0" encoding="UTF-8" standalone="no"?>
<!DOCTYPE svg PUBLIC "-//W3C//DTD SVG 1.1//EN"
 "http://www.w3.org/Graphics/SVG/1.1/DTD/svg11.dtd">
<!-- Generated by graphviz version 2.47.0 (20210316.0004)
 -->
<!-- Title: dependencies Pages: 1 -->
<svg width="504pt" height="211pt"
 viewBox="0.00 0.00 504.00 211.00" xmlns="http://www.w3.org/2000/svg" xmlns:xlink="http://www.w3.org/1999/xlink">
<g id="graph0" class="graph" transform="scale(1 1) rotate(0) translate(4 207)">
<title>dependencies</title>
<polygon fill="white" stroke="transparent" points="-4,4 -4,-207 500,-207 500,4 -4,4"/>
<text text-anchor="start" x="227.01" y="-42.4" font-family="Times-12" font-weight="bold" font-size="14.00">Legend</text>
<polygon fill="#ffffb3" stroke="transparent" points="14,-10 14,-30 34,-30 34,-10 14,-10"/>
<text text-anchor="start" x="37.63" y="-15.4" font-family="Times-12" font-size="14.00"> &#160;Declarations</text>
<polygon fill="#8dd3c7" stroke="transparent" points="127,-10 127,-30 147,-30 147,-10 127,-10"/>
<text text-anchor="start" x="150.73" y="-15.4" font-family="Times-12" font-size="14.00"> &#160;Module</text>
<polygon fill="#80b1d3" stroke="transparent" points="213,-10 213,-30 233,-30 233,-10 213,-10"/>
<text text-anchor="start" x="236.78" y="-15.4" font-family="Times-12" font-size="14.00"> &#160;Bootstrap</text>
<polygon fill="#fdb462" stroke="transparent" points="310,-10 310,-30 330,-30 330,-10 310,-10"/>
<text text-anchor="start" x="333.67" y="-15.4" font-family="Times-12" font-size="14.00"> &#160;Providers</text>
<polygon fill="#fb8072" stroke="transparent" points="406,-10 406,-30 426,-30 426,-10 406,-10"/>
<text text-anchor="start" x="429.73" y="-15.4" font-family="Times-12" font-size="14.00"> &#160;Exports</text>
<g id="clust1" class="cluster">
<title>cluster_AdvPageModule</title>
<polygon fill="none" stroke="black" stroke-dasharray="1,5" points="108,-70 108,-195 388,-195 388,-70 108,-70"/>
</g>
<g id="clust2" class="cluster">
<title>cluster_AdvPageModule_declarations</title>
<polygon fill="none" stroke="black" points="296,-78 296,-130 380,-130 380,-78 296,-78"/>
</g>
<g id="clust4" class="cluster">
<title>cluster_AdvPageModule_imports</title>
<polygon fill="none" stroke="black" points="116,-78 116,-130 288,-130 288,-78 116,-78"/>
</g>
<!-- AdvPage -->
<g id="node1" class="node">
<title>AdvPage</title>
<polygon fill="#ffffb3" stroke="black" points="371.82,-122 304.18,-122 304.18,-86 371.82,-86 371.82,-122"/>
<text text-anchor="middle" x="338" y="-99.8" font-family="Times,serif" font-size="14.00">AdvPage</text>
</g>
<!-- AdvPageModule -->
<g id="node2" class="node">
<title>AdvPageModule</title>
<polygon fill="#8dd3c7" stroke="black" points="318.37,-187 315.37,-191 294.37,-191 291.37,-187 207.63,-187 207.63,-151 318.37,-151 318.37,-187"/>
<text text-anchor="middle" x="263" y="-164.8" font-family="Times,serif" font-size="14.00">AdvPageModule</text>
</g>
<!-- AdvPage&#45;&gt;AdvPageModule -->
<g id="edge1" class="edge">
<title>AdvPage&#45;&gt;AdvPageModule</title>
<path fill="none" stroke="black" d="M311.39,-122.11C311.39,-122.11 311.39,-140.99 311.39,-140.99"/>
<polygon fill="black" stroke="black" points="307.89,-140.99 311.39,-150.99 314.89,-140.99 307.89,-140.99"/>
</g>
<!-- AdvPageRoutingModule -->
<g id="node3" class="node">
<title>AdvPageRoutingModule</title>
<polygon fill="#8dd3c7" stroke="black" points="279.99,-122 276.99,-126 255.99,-126 252.99,-122 124.01,-122 124.01,-86 279.99,-86 279.99,-122"/>
<text text-anchor="middle" x="202" y="-99.8" font-family="Times,serif" font-size="14.00">AdvPageRoutingModule</text>
</g>
<!-- AdvPageRoutingModule&#45;&gt;AdvPageModule -->
<g id="edge2" class="edge">
<title>AdvPageRoutingModule&#45;&gt;AdvPageModule</title>
<path fill="none" stroke="black" d="M243.78,-122.11C243.78,-122.11 243.78,-140.99 243.78,-140.99"/>
<polygon fill="black" stroke="black" points="240.28,-140.99 243.78,-150.99 247.28,-140.99 240.28,-140.99"/>
</g>
</g>
</svg>
