<?xml version="1.0" encoding="UTF-8" standalone="no"?>
<!DOCTYPE svg PUBLIC "-//W3C//DTD SVG 1.1//EN"
 "http://www.w3.org/Graphics/SVG/1.1/DTD/svg11.dtd">
<!-- Generated by graphviz version 2.47.0 (20210316.0004)
 -->
<!-- Title: dependencies Pages: 1 -->
<svg width="1016pt" height="284pt"
 viewBox="0.00 0.00 1016.00 284.00" xmlns="http://www.w3.org/2000/svg" xmlns:xlink="http://www.w3.org/1999/xlink">
<g id="graph0" class="graph" transform="scale(1 1) rotate(0) translate(4 280)">
<title>dependencies</title>
<polygon fill="white" stroke="transparent" points="-4,4 -4,-280 1012,-280 1012,4 -4,4"/>
<text text-anchor="start" x="483.01" y="-42.4" font-family="Times-12" font-weight="bold" font-size="14.00">Legend</text>
<polygon fill="#ffffb3" stroke="transparent" points="270,-10 270,-30 290,-30 290,-10 270,-10"/>
<text text-anchor="start" x="293.63" y="-15.4" font-family="Times-12" font-size="14.00"> &#160;Declarations</text>
<polygon fill="#8dd3c7" stroke="transparent" points="383,-10 383,-30 403,-30 403,-10 383,-10"/>
<text text-anchor="start" x="406.73" y="-15.4" font-family="Times-12" font-size="14.00"> &#160;Module</text>
<polygon fill="#80b1d3" stroke="transparent" points="469,-10 469,-30 489,-30 489,-10 469,-10"/>
<text text-anchor="start" x="492.78" y="-15.4" font-family="Times-12" font-size="14.00"> &#160;Bootstrap</text>
<polygon fill="#fdb462" stroke="transparent" points="566,-10 566,-30 586,-30 586,-10 566,-10"/>
<text text-anchor="start" x="589.67" y="-15.4" font-family="Times-12" font-size="14.00"> &#160;Providers</text>
<polygon fill="#fb8072" stroke="transparent" points="662,-10 662,-30 682,-30 682,-10 662,-10"/>
<text text-anchor="start" x="685.73" y="-15.4" font-family="Times-12" font-size="14.00"> &#160;Exports</text>
<g id="clust1" class="cluster">
<title>cluster_AppModule</title>
<polygon fill="none" stroke="black" stroke-dasharray="1,5" points="8,-70 8,-268 1000,-268 1000,-70 8,-70"/>
</g>
<g id="clust2" class="cluster">
<title>cluster_AppModule_declarations</title>
<polygon fill="none" stroke="black" points="356,-78 356,-130 992,-130 992,-78 356,-78"/>
</g>
<g id="clust10" class="cluster">
<title>cluster_AppModule_providers</title>
<polygon fill="none" stroke="black" points="168,-78 168,-130 348,-130 348,-78 168,-78"/>
</g>
<g id="clust7" class="cluster">
<title>cluster_AppModule_imports</title>
<polygon fill="none" stroke="black" points="16,-78 16,-130 160,-130 160,-78 16,-78"/>
</g>
<g id="clust9" class="cluster">
<title>cluster_AppModule_bootstrap</title>
<polygon fill="none" stroke="black" points="457,-208 457,-260 581,-260 581,-208 457,-208"/>
</g>
<!-- AppComponent -->
<g id="node1" class="node">
<title>AppComponent</title>
<polygon fill="#ffffb3" stroke="black" points="983.94,-122 878.06,-122 878.06,-86 983.94,-86 983.94,-122"/>
<text text-anchor="middle" x="931" y="-99.8" font-family="Times,serif" font-size="14.00">AppComponent</text>
</g>
<!-- AppModule -->
<g id="node5" class="node">
<title>AppModule</title>
<polygon fill="#8dd3c7" stroke="black" points="560.66,-187 557.66,-191 536.66,-191 533.66,-187 477.34,-187 477.34,-151 560.66,-151 560.66,-187"/>
<text text-anchor="middle" x="519" y="-164.8" font-family="Times,serif" font-size="14.00">AppModule</text>
</g>
<!-- AppComponent&#45;&gt;AppModule -->
<g id="edge1" class="edge">
<title>AppComponent&#45;&gt;AppModule</title>
<path fill="none" stroke="black" d="M931,-122.28C931,-143.32 931,-175 931,-175 931,-175 570.77,-175 570.77,-175"/>
<polygon fill="black" stroke="black" points="570.77,-171.5 560.77,-175 570.77,-178.5 570.77,-171.5"/>
</g>
<!-- UploadDetailsComponent -->
<g id="node2" class="node">
<title>UploadDetailsComponent</title>
<polygon fill="#ffffb3" stroke="black" points="860.2,-122 697.8,-122 697.8,-86 860.2,-86 860.2,-122"/>
<text text-anchor="middle" x="779" y="-99.8" font-family="Times,serif" font-size="14.00">UploadDetailsComponent</text>
</g>
<!-- UploadDetailsComponent&#45;&gt;AppModule -->
<g id="edge2" class="edge">
<title>UploadDetailsComponent&#45;&gt;AppModule</title>
<path fill="none" stroke="black" d="M779,-122.02C779,-139.37 779,-163 779,-163 779,-163 570.77,-163 570.77,-163"/>
<polygon fill="black" stroke="black" points="570.77,-159.5 560.77,-163 570.77,-166.5 570.77,-159.5"/>
</g>
<!-- UploadFormComponent -->
<g id="node3" class="node">
<title>UploadFormComponent</title>
<polygon fill="#ffffb3" stroke="black" points="679.38,-122 526.62,-122 526.62,-86 679.38,-86 679.38,-122"/>
<text text-anchor="middle" x="603" y="-99.8" font-family="Times,serif" font-size="14.00">UploadFormComponent</text>
</g>
<!-- UploadFormComponent&#45;&gt;AppModule -->
<g id="edge3" class="edge">
<title>UploadFormComponent&#45;&gt;AppModule</title>
<path fill="none" stroke="black" d="M543.69,-122.11C543.69,-122.11 543.69,-140.99 543.69,-140.99"/>
<polygon fill="black" stroke="black" points="540.19,-140.99 543.69,-150.99 547.19,-140.99 540.19,-140.99"/>
</g>
<!-- UploadListComponent -->
<g id="node4" class="node">
<title>UploadListComponent</title>
<polygon fill="#ffffb3" stroke="black" points="508.32,-122 363.68,-122 363.68,-86 508.32,-86 508.32,-122"/>
<text text-anchor="middle" x="436" y="-99.8" font-family="Times,serif" font-size="14.00">UploadListComponent</text>
</g>
<!-- UploadListComponent&#45;&gt;AppModule -->
<g id="edge4" class="edge">
<title>UploadListComponent&#45;&gt;AppModule</title>
<path fill="none" stroke="black" d="M492.67,-122.11C492.67,-122.11 492.67,-140.99 492.67,-140.99"/>
<polygon fill="black" stroke="black" points="489.17,-140.99 492.67,-150.99 496.17,-140.99 489.17,-140.99"/>
</g>
<!-- AppComponent  -->
<g id="node7" class="node">
<title>AppComponent </title>
<polygon fill="#80b1d3" stroke="black" points="573.44,-252 464.56,-252 464.56,-216 573.44,-216 573.44,-252"/>
<text text-anchor="middle" x="519" y="-229.8" font-family="Times,serif" font-size="14.00">AppComponent </text>
</g>
<!-- AppModule&#45;&gt;AppComponent  -->
<g id="edge6" class="edge">
<title>AppModule&#45;&gt;AppComponent </title>
<path fill="none" stroke="black" stroke-dasharray="1,5" d="M519,-187.11C519,-187.11 519,-205.99 519,-205.99"/>
<polygon fill="black" stroke="black" points="515.5,-205.99 519,-215.99 522.5,-205.99 515.5,-205.99"/>
</g>
<!-- AppRoutingModule -->
<g id="node6" class="node">
<title>AppRoutingModule</title>
<polygon fill="#8dd3c7" stroke="black" points="152.27,-122 149.27,-126 128.27,-126 125.27,-122 23.73,-122 23.73,-86 152.27,-86 152.27,-122"/>
<text text-anchor="middle" x="88" y="-99.8" font-family="Times,serif" font-size="14.00">AppRoutingModule</text>
</g>
<!-- AppRoutingModule&#45;&gt;AppModule -->
<g id="edge5" class="edge">
<title>AppRoutingModule&#45;&gt;AppModule</title>
<path fill="none" stroke="black" d="M88,-122.28C88,-143.32 88,-175 88,-175 88,-175 467.28,-175 467.28,-175"/>
<polygon fill="black" stroke="black" points="467.28,-178.5 477.28,-175 467.28,-171.5 467.28,-178.5"/>
</g>
<!-- MessagingService -->
<g id="node8" class="node">
<title>MessagingService</title>
<ellipse fill="#fdb462" stroke="black" cx="258" cy="-104" rx="81.66" ry="18"/>
<text text-anchor="middle" x="258" y="-99.8" font-family="Times,serif" font-size="14.00">MessagingService</text>
</g>
<!-- MessagingService&#45;&gt;AppModule -->
<g id="edge7" class="edge">
<title>MessagingService&#45;&gt;AppModule</title>
<path fill="none" stroke="black" d="M258,-122.02C258,-139.37 258,-163 258,-163 258,-163 467.07,-163 467.07,-163"/>
<polygon fill="black" stroke="black" points="467.07,-166.5 477.07,-163 467.07,-159.5 467.07,-166.5"/>
</g>
</g>
</svg>
