<?xml version="1.0" encoding="UTF-8" standalone="no"?>
<!DOCTYPE svg PUBLIC "-//W3C//DTD SVG 1.1//EN"
 "http://www.w3.org/Graphics/SVG/1.1/DTD/svg11.dtd">
<!-- Generated by graphviz version 2.47.0 (20210316.0004)
 -->
<!-- Title: dependencies Pages: 1 -->
<svg width="504pt" height="211pt"
 viewBox="0.00 0.00 504.00 211.00" xmlns="http://www.w3.org/2000/svg" xmlns:xlink="http://www.w3.org/1999/xlink">
<g id="graph0" class="graph" transform="scale(1 1) rotate(0) translate(4 207)">
<title>dependencies</title>
<polygon fill="white" stroke="transparent" points="-4,4 -4,-207 500,-207 500,4 -4,4"/>
<text text-anchor="start" x="227.01" y="-42.4" font-family="Times-12" font-weight="bold" font-size="14.00">Legend</text>
<polygon fill="#ffffb3" stroke="transparent" points="14,-10 14,-30 34,-30 34,-10 14,-10"/>
<text text-anchor="start" x="37.63" y="-15.4" font-family="Times-12" font-size="14.00"> &#160;Declarations</text>
<polygon fill="#8dd3c7" stroke="transparent" points="127,-10 127,-30 147,-30 147,-10 127,-10"/>
<text text-anchor="start" x="150.73" y="-15.4" font-family="Times-12" font-size="14.00"> &#160;Module</text>
<polygon fill="#80b1d3" stroke="transparent" points="213,-10 213,-30 233,-30 233,-10 213,-10"/>
<text text-anchor="start" x="236.78" y="-15.4" font-family="Times-12" font-size="14.00"> &#160;Bootstrap</text>
<polygon fill="#fdb462" stroke="transparent" points="310,-10 310,-30 330,-30 330,-10 310,-10"/>
<text text-anchor="start" x="333.67" y="-15.4" font-family="Times-12" font-size="14.00"> &#160;Providers</text>
<polygon fill="#fb8072" stroke="transparent" points="406,-10 406,-30 426,-30 426,-10 406,-10"/>
<text text-anchor="start" x="429.73" y="-15.4" font-family="Times-12" font-size="14.00"> &#160;Exports</text>
<g id="clust1" class="cluster">
<title>cluster_FolderPageModule</title>
<polygon fill="none" stroke="black" stroke-dasharray="1,5" points="96,-70 96,-195 400,-195 400,-70 96,-70"/>
</g>
<g id="clust2" class="cluster">
<title>cluster_FolderPageModule_declarations</title>
<polygon fill="none" stroke="black" points="296,-78 296,-130 392,-130 392,-78 296,-78"/>
</g>
<g id="clust4" class="cluster">
<title>cluster_FolderPageModule_imports</title>
<polygon fill="none" stroke="black" points="104,-78 104,-130 288,-130 288,-78 104,-78"/>
</g>
<!-- FolderPage -->
<g id="node1" class="node">
<title>FolderPage</title>
<polygon fill="#ffffb3" stroke="black" points="383.76,-122 304.24,-122 304.24,-86 383.76,-86 383.76,-122"/>
<text text-anchor="middle" x="344" y="-99.8" font-family="Times,serif" font-size="14.00">FolderPage</text>
</g>
<!-- FolderPageModule -->
<g id="node2" class="node">
<title>FolderPageModule</title>
<polygon fill="#8dd3c7" stroke="black" points="324.81,-187 321.81,-191 300.81,-191 297.81,-187 201.19,-187 201.19,-151 324.81,-151 324.81,-187"/>
<text text-anchor="middle" x="263" y="-164.8" font-family="Times,serif" font-size="14.00">FolderPageModule</text>
</g>
<!-- FolderPage&#45;&gt;FolderPageModule -->
<g id="edge1" class="edge">
<title>FolderPage&#45;&gt;FolderPageModule</title>
<path fill="none" stroke="black" d="M314.39,-122.11C314.39,-122.11 314.39,-140.99 314.39,-140.99"/>
<polygon fill="black" stroke="black" points="310.89,-140.99 314.39,-150.99 317.89,-140.99 310.89,-140.99"/>
</g>
<!-- FolderPageRoutingModule -->
<g id="node3" class="node">
<title>FolderPageRoutingModule</title>
<polygon fill="#8dd3c7" stroke="black" points="280.43,-122 277.43,-126 256.43,-126 253.43,-122 111.57,-122 111.57,-86 280.43,-86 280.43,-122"/>
<text text-anchor="middle" x="196" y="-99.8" font-family="Times,serif" font-size="14.00">FolderPageRoutingModule</text>
</g>
<!-- FolderPageRoutingModule&#45;&gt;FolderPageModule -->
<g id="edge2" class="edge">
<title>FolderPageRoutingModule&#45;&gt;FolderPageModule</title>
<path fill="none" stroke="black" d="M240.78,-122.11C240.78,-122.11 240.78,-140.99 240.78,-140.99"/>
<polygon fill="black" stroke="black" points="237.28,-140.99 240.78,-150.99 244.28,-140.99 237.28,-140.99"/>
</g>
</g>
</svg>
