<svg width="262" height="40" viewBox="0 0 262 40" fill="none" xmlns="http://www.w3.org/2000/svg">
<path d="M260.287 35.3848H1.53113V40.0002H260.287V35.3848Z" fill="#EF7B10"/>
<path d="M36.7879 8.43491L36.3216 11.281H30.363L30.7775 8.7454C30.9329 7.96918 31.3474 7.29646 32.0728 6.72723C32.7982 6.158 33.5754 5.84751 34.4563 5.84751C35.2335 5.84751 35.8553 6.10625 36.3216 6.62373C36.7879 7.14121 36.9434 7.71044 36.7879 8.43491ZM38.4978 0H32.1765C30.3112 0 28.5495 0.620975 26.9951 1.91467C25.4406 3.15662 24.4562 4.70906 24.0935 6.52024L19.9484 28.2026H26.5806C26.8914 28.2026 27.1505 27.9956 27.2023 27.6851L29.2231 17.0768H35.1299L33.0055 28.2026H39.6377C39.9486 28.2026 40.2076 27.9956 40.2594 27.6851L44.3009 6.72723C44.6636 4.91605 44.2491 3.31187 43.1092 1.96642C41.9693 0.672723 40.4149 0 38.4978 0Z" fill="#030200"/>
<path d="M178.81 8.43491L178.344 11.281H172.385L172.8 8.7454C172.955 7.96918 173.369 7.29646 174.095 6.72723C174.82 6.158 175.597 5.84751 176.478 5.84751C177.256 5.84751 177.877 6.10625 178.344 6.62373C178.81 7.14121 178.965 7.71044 178.81 8.43491ZM180.572 0H174.25C172.385 0 170.623 0.620975 169.069 1.91467C167.514 3.15662 166.53 4.70906 166.167 6.52024L162.022 28.2026H168.654C168.965 28.2026 169.224 27.9956 169.276 27.6851L171.297 17.1286H177.204L175.079 28.2544H181.712C182.022 28.2544 182.282 28.0474 182.333 27.7369L186.323 6.83072C186.686 5.01955 186.271 3.41536 185.131 2.06992C183.991 0.672723 182.489 0 180.572 0Z" fill="#030200"/>
<path d="M69.4823 0.516632H63.1092L60.4667 14.2816L55.3889 0.82712C55.3371 0.671876 55.078 0.56838 54.8708 0.56838H50.2593L45.0261 28.2018H51.5547C51.8656 28.2018 52.1246 27.9948 52.1765 27.6843L54.7153 14.4368L59.8967 28.2018H64.4564C64.7673 28.2018 65.0263 27.9948 65.0781 27.6843L70.1041 1.29285C70.1559 1.08586 70.1041 0.930615 69.9487 0.775372C69.845 0.56838 69.6896 0.516632 69.4823 0.516632Z" fill="#030200"/>
<path d="M87.3582 8.43406L85.1302 20.0256C85.0266 20.6466 84.6639 21.2158 84.0421 21.6815C83.4203 22.1473 82.7985 22.406 82.0732 22.406H78.8089L81.9177 6.2089H85.4411C86.1146 6.2089 86.6328 6.41589 86.9955 6.82988C87.3582 7.29561 87.4618 7.81309 87.3582 8.43406ZM89.0162 0.516632H75.9591L70.6741 28.2018H83.9903C85.8038 28.2018 87.5136 27.5808 89.068 26.3388C90.6225 25.0969 91.5551 23.5962 91.9178 21.8368L94.7158 7.14036C95.0785 5.32919 94.664 3.77675 93.524 2.48305C92.436 1.13761 90.8815 0.516632 89.0162 0.516632Z" fill="#030200"/>
<path d="M118.706 0.723624C118.602 0.56838 118.395 0.516632 118.239 0.516632H100.985L95.7003 28.2018H113.213C113.524 28.2018 113.783 27.9948 113.835 27.6843L114.716 23.1822C114.768 22.9752 114.716 22.82 114.561 22.6647C114.457 22.5095 114.25 22.4577 114.094 22.4577H103.835L104.82 17.283H112.229C112.54 17.283 112.799 17.076 112.851 16.7655L113.732 12.2634C113.783 12.0564 113.732 11.9012 113.576 11.7459C113.473 11.5907 113.265 11.4872 113.11 11.4872H105.959L106.892 6.2089H117.359C117.669 6.2089 117.929 6.00191 117.98 5.69142L118.861 1.18935C118.861 1.08586 118.809 0.878867 118.706 0.723624Z" fill="#030200"/>
<path d="M211.764 0.516632H205.391L202.748 14.2816L197.67 0.82712C197.618 0.671876 197.359 0.56838 197.152 0.56838H192.541L187.256 28.2535H193.784C194.095 28.2535 194.354 28.0465 194.406 27.736L196.945 14.4886L202.126 28.2535H206.686C206.997 28.2535 207.256 28.0465 207.308 27.736L212.334 1.3446C212.385 1.13761 212.334 0.982363 212.178 0.82712C212.126 0.56838 211.919 0.516632 211.764 0.516632Z" fill="#030200"/>
<path d="M229.64 8.43406L227.412 20.0256C227.308 20.6466 226.945 21.2158 226.323 21.6815C225.702 22.1473 225.08 22.406 224.355 22.406H221.09L224.199 6.2089H227.722C228.396 6.2089 228.914 6.41589 229.277 6.82988C229.64 7.29561 229.743 7.81309 229.64 8.43406ZM231.298 0.516632H218.24L212.955 28.2018H226.272C228.085 28.2018 229.795 27.5808 231.349 26.3388C232.904 25.0969 233.836 23.5962 234.199 21.8368L236.997 7.14036C237.36 5.32919 236.945 3.77675 235.805 2.48305C234.666 1.13761 233.163 0.516632 231.298 0.516632Z" fill="#030200"/>
<path d="M260.987 0.723624C260.884 0.56838 260.676 0.516632 260.521 0.516632H243.267L237.982 28.2018H255.443C255.754 28.2018 256.013 27.9948 256.065 27.6843L256.946 23.1822C256.997 22.9752 256.946 22.82 256.79 22.6647C256.687 22.5095 256.479 22.4577 256.324 22.4577H246.065L247.049 17.283H254.459C254.769 17.283 255.029 17.076 255.08 16.7655L255.961 12.2634C256.013 12.0564 255.961 11.9012 255.806 11.7459C255.702 11.5907 255.495 11.4872 255.339 11.4872H248.189L249.122 6.2089H259.588C259.899 6.2089 260.158 6.00191 260.21 5.69142L261.091 1.18935C261.143 1.08586 261.091 0.878867 260.987 0.723624Z" fill="#030200"/>
<path d="M134.82 8.43406L134.717 9.10678C134.613 9.77951 134.25 10.297 133.628 10.8145C133.007 11.2802 132.385 11.5389 131.66 11.5389H128.395L129.38 6.26065H132.903C133.577 6.26065 134.095 6.46764 134.457 6.88162C134.82 7.29561 134.976 7.81309 134.82 8.43406ZM136.53 0.516632H123.473L118.188 28.2018H124.716C125.027 28.2018 125.286 27.9948 125.338 27.6843L127.359 17.283H130.882C131.556 17.283 132.074 17.4899 132.437 17.9557C132.799 18.3697 132.955 18.8871 132.799 19.5081L131.09 28.2018H137.722C138.033 28.2018 138.292 27.9948 138.344 27.6843L140.312 17.283C140.52 16.2997 140.261 15.42 139.639 14.6956C139.276 14.2816 138.862 14.0228 138.395 13.8158C138.862 13.5571 139.276 13.2466 139.639 12.8326C140.882 11.5389 141.66 10.1417 141.971 8.74455L142.281 7.14036C142.644 5.38094 142.23 3.77675 141.09 2.48305C139.95 1.13761 138.395 0.516632 136.53 0.516632Z" fill="#030200"/>
<path d="M143.577 28.2045H157.877C158.188 28.2045 158.447 27.9975 158.499 27.687L159.38 23.1849C159.432 22.9779 159.38 22.8227 159.225 22.6674C159.121 22.5122 158.914 22.4604 158.758 22.4604H151.712L155.753 1.29555C155.805 1.08855 155.753 0.933311 155.598 0.778067C155.494 0.622823 155.287 0.571075 155.131 0.571075H148.862L143.577 28.2045Z" fill="#030200"/>
<path d="M0 0.258759C0 0.258759 5.1814 0.258759 6.58038 0.258759C7.4094 0.258759 7.7721 0.672742 7.82391 1.50071C8.08298 7.34822 8.03117 19.3537 8.03117 19.3537L14.3007 0.258759C14.3007 0.258759 19.6893 0.258759 20.9328 0.258759C21.7101 0.258759 21.9691 0.258759 22.1764 0.517498C22.3836 0.776238 22.1246 1.34546 22.1246 1.34546L12.1245 26.5984C12.1245 26.5984 11.8654 27.2194 11.5545 27.6334C11.1918 28.1509 10.7773 28.1509 9.94828 28.1509H1.81349L0 0.258759Z" fill="#030200"/>
</svg>
