<?xml version="1.0" encoding="UTF-8" standalone="no"?>
<!DOCTYPE svg PUBLIC "-//W3C//DTD SVG 1.1//EN"
 "http://www.w3.org/Graphics/SVG/1.1/DTD/svg11.dtd">
<!-- Generated by graphviz version 2.47.0 (20210316.0004)
 -->
<!-- Title: dependencies Pages: 1 -->
<svg width="609pt" height="211pt"
 viewBox="0.00 0.00 609.00 211.00" xmlns="http://www.w3.org/2000/svg" xmlns:xlink="http://www.w3.org/1999/xlink">
<g id="graph0" class="graph" transform="scale(1 1) rotate(0) translate(4 207)">
<title>dependencies</title>
<polygon fill="white" stroke="transparent" points="-4,4 -4,-207 605,-207 605,4 -4,4"/>
<text text-anchor="start" x="279.51" y="-42.4" font-family="Times-12" font-weight="bold" font-size="14.00">Legend</text>
<polygon fill="#ffffb3" stroke="transparent" points="66.5,-10 66.5,-30 86.5,-30 86.5,-10 66.5,-10"/>
<text text-anchor="start" x="90.13" y="-15.4" font-family="Times-12" font-size="14.00"> &#160;Declarations</text>
<polygon fill="#8dd3c7" stroke="transparent" points="179.5,-10 179.5,-30 199.5,-30 199.5,-10 179.5,-10"/>
<text text-anchor="start" x="203.23" y="-15.4" font-family="Times-12" font-size="14.00"> &#160;Module</text>
<polygon fill="#80b1d3" stroke="transparent" points="265.5,-10 265.5,-30 285.5,-30 285.5,-10 265.5,-10"/>
<text text-anchor="start" x="289.28" y="-15.4" font-family="Times-12" font-size="14.00"> &#160;Bootstrap</text>
<polygon fill="#fdb462" stroke="transparent" points="362.5,-10 362.5,-30 382.5,-30 382.5,-10 362.5,-10"/>
<text text-anchor="start" x="386.17" y="-15.4" font-family="Times-12" font-size="14.00"> &#160;Providers</text>
<polygon fill="#fb8072" stroke="transparent" points="458.5,-10 458.5,-30 478.5,-30 478.5,-10 458.5,-10"/>
<text text-anchor="start" x="482.23" y="-15.4" font-family="Times-12" font-size="14.00"> &#160;Exports</text>
<g id="clust1" class="cluster">
<title>cluster_ReportPageModule</title>
<polygon fill="none" stroke="black" stroke-dasharray="1,5" points="8,-70 8,-195 593,-195 593,-70 8,-70"/>
</g>
<g id="clust2" class="cluster">
<title>cluster_ReportPageModule_declarations</title>
<polygon fill="none" stroke="black" points="210,-78 210,-130 585,-130 585,-78 210,-78"/>
</g>
<g id="clust6" class="cluster">
<title>cluster_ReportPageModule_imports</title>
<polygon fill="none" stroke="black" points="16,-78 16,-130 202,-130 202,-78 16,-78"/>
</g>
<!-- GraphComponent -->
<g id="node1" class="node">
<title>GraphComponent</title>
<polygon fill="#ffffb3" stroke="black" points="577.31,-122 460.69,-122 460.69,-86 577.31,-86 577.31,-122"/>
<text text-anchor="middle" x="519" y="-99.8" font-family="Times,serif" font-size="14.00">GraphComponent</text>
</g>
<!-- ReportPageModule -->
<g id="node4" class="node">
<title>ReportPageModule</title>
<polygon fill="#8dd3c7" stroke="black" points="381.36,-187 378.36,-191 357.36,-191 354.36,-187 256.64,-187 256.64,-151 381.36,-151 381.36,-187"/>
<text text-anchor="middle" x="319" y="-164.8" font-family="Times,serif" font-size="14.00">ReportPageModule</text>
</g>
<!-- GraphComponent&#45;&gt;ReportPageModule -->
<g id="edge1" class="edge">
<title>GraphComponent&#45;&gt;ReportPageModule</title>
<path fill="none" stroke="black" d="M519,-122.11C519,-141.34 519,-169 519,-169 519,-169 391.46,-169 391.46,-169"/>
<polygon fill="black" stroke="black" points="391.46,-165.5 381.46,-169 391.46,-172.5 391.46,-165.5"/>
</g>
<!-- MarkBaseDirective -->
<g id="node2" class="node">
<title>MarkBaseDirective</title>
<polygon fill="#ffffb3" stroke="black" points="442.61,-122 317.39,-122 317.39,-86 442.61,-86 442.61,-122"/>
<text text-anchor="middle" x="380" y="-99.8" font-family="Times,serif" font-size="14.00">MarkBaseDirective</text>
</g>
<!-- MarkBaseDirective&#45;&gt;ReportPageModule -->
<g id="edge2" class="edge">
<title>MarkBaseDirective&#45;&gt;ReportPageModule</title>
<path fill="none" stroke="black" d="M349.31,-122.11C349.31,-122.11 349.31,-140.99 349.31,-140.99"/>
<polygon fill="black" stroke="black" points="345.81,-140.99 349.31,-150.99 352.81,-140.99 345.81,-140.99"/>
</g>
<!-- ReportPage -->
<g id="node3" class="node">
<title>ReportPage</title>
<polygon fill="#ffffb3" stroke="black" points="299.81,-122 218.19,-122 218.19,-86 299.81,-86 299.81,-122"/>
<text text-anchor="middle" x="259" y="-99.8" font-family="Times,serif" font-size="14.00">ReportPage</text>
</g>
<!-- ReportPage&#45;&gt;ReportPageModule -->
<g id="edge3" class="edge">
<title>ReportPage&#45;&gt;ReportPageModule</title>
<path fill="none" stroke="black" d="M278.11,-122.11C278.11,-122.11 278.11,-140.99 278.11,-140.99"/>
<polygon fill="black" stroke="black" points="274.61,-140.99 278.11,-150.99 281.61,-140.99 274.61,-140.99"/>
</g>
<!-- ReportPageRoutingModule -->
<g id="node5" class="node">
<title>ReportPageRoutingModule</title>
<polygon fill="#8dd3c7" stroke="black" points="193.98,-122 190.98,-126 169.98,-126 166.98,-122 24.02,-122 24.02,-86 193.98,-86 193.98,-122"/>
<text text-anchor="middle" x="109" y="-99.8" font-family="Times,serif" font-size="14.00">ReportPageRoutingModule</text>
</g>
<!-- ReportPageRoutingModule&#45;&gt;ReportPageModule -->
<g id="edge4" class="edge">
<title>ReportPageRoutingModule&#45;&gt;ReportPageModule</title>
<path fill="none" stroke="black" d="M109,-122.11C109,-141.34 109,-169 109,-169 109,-169 246.56,-169 246.56,-169"/>
<polygon fill="black" stroke="black" points="246.56,-172.5 256.56,-169 246.56,-165.5 246.56,-172.5"/>
</g>
</g>
</svg>
